solid ASCII
  facet normal -1.000000e+00 0.000000e+00 0.000000e+00
    outer loop
      vertex   -2.107500e+02 1.121730e+02 2.161032e+02
      vertex   -2.107500e+02 9.384950e+01 2.346500e+02
      vertex   -2.107500e+02 1.133196e+02 2.170389e+02
    endloop
  endfacet
  facet normal -1.000000e+00 0.000000e+00 0.000000e+00
    outer loop
      vertex   -2.107500e+02 1.133196e+02 2.170389e+02
      vertex   -2.107500e+02 9.384950e+01 2.346500e+02
      vertex   -2.107500e+02 1.157019e+02 2.189830e+02
    endloop
  endfacet
  facet normal -1.000000e+00 0.000000e+00 0.000000e+00
    outer loop
      vertex   -2.107500e+02 1.133196e+02 2.170389e+02
      vertex   -2.107500e+02 1.157019e+02 2.189830e+02
      vertex   -2.107500e+02 1.349000e+02 2.011500e+02
    endloop
  endfacet
  facet normal -1.000000e+00 0.000000e+00 0.000000e+00
    outer loop
      vertex   -2.107500e+02 1.349000e+02 2.011500e+02
      vertex   -2.107500e+02 1.157019e+02 2.189830e+02
      vertex   -2.107500e+02 1.244741e+02 2.261417e+02
    endloop
  endfacet
  facet normal -1.000000e+00 0.000000e+00 0.000000e+00
    outer loop
      vertex   -2.107500e+02 1.349000e+02 2.011500e+02
      vertex   -2.107500e+02 1.244741e+02 2.261417e+02
      vertex   -2.107500e+02 1.254644e+02 2.269499e+02
    endloop
  endfacet
  facet normal -1.000000e+00 -0.000000e+00 0.000000e+00
    outer loop
      vertex   -2.107500e+02 1.254644e+02 2.269499e+02
      vertex   -2.107500e+02 1.244741e+02 2.261417e+02
      vertex   -2.107500e+02 9.384950e+01 2.346500e+02
    endloop
  endfacet
  facet normal -1.000000e+00 0.000000e+00 0.000000e+00
    outer loop
      vertex   -2.107500e+02 1.254644e+02 2.269499e+02
      vertex   -2.107500e+02 9.384950e+01 2.346500e+02
      vertex   -2.107500e+02 1.349000e+02 2.346500e+02
    endloop
  endfacet
  facet normal -1.000000e+00 0.000000e+00 -0.000000e+00
    outer loop
      vertex   -2.107500e+02 1.133196e+02 2.170389e+02
      vertex   -2.107500e+02 1.349000e+02 2.011500e+02
      vertex   -2.107500e+02 1.121730e+02 2.161032e+02
    endloop
  endfacet
  facet normal -1.000000e+00 0.000000e+00 -0.000000e+00
    outer loop
      vertex   -2.107500e+02 1.121730e+02 2.161032e+02
      vertex   -2.107500e+02 1.349000e+02 2.011500e+02
      vertex   -2.107500e+02 1.110005e+02 2.151464e+02
    endloop
  endfacet
  facet normal -1.000000e+00 -0.000000e+00 0.000000e+00
    outer loop
      vertex   -2.107500e+02 1.121730e+02 2.161032e+02
      vertex   -2.107500e+02 1.110005e+02 2.151464e+02
      vertex   -2.107500e+02 9.384950e+01 2.346500e+02
    endloop
  endfacet
  facet normal -1.000000e+00 0.000000e+00 0.000000e+00
    outer loop
      vertex   -2.107500e+02 9.384950e+01 2.346500e+02
      vertex   -2.107500e+02 1.110005e+02 2.151464e+02
      vertex   -2.107500e+02 1.036075e+02 2.091132e+02
    endloop
  endfacet
  facet normal -1.000000e+00 0.000000e+00 0.000000e+00
    outer loop
      vertex   -2.107500e+02 9.384950e+01 2.346500e+02
      vertex   -2.107500e+02 1.036075e+02 2.091132e+02
      vertex   -2.107500e+02 1.023265e+02 2.080678e+02
    endloop
  endfacet
  facet normal -1.000000e+00 0.000000e+00 0.000000e+00
    outer loop
      vertex   -2.107500e+02 1.023265e+02 2.080678e+02
      vertex   -2.107500e+02 1.036075e+02 2.091132e+02
      vertex   -2.107500e+02 1.349000e+02 2.011500e+02
    endloop
  endfacet
  facet normal -1.000000e+00 0.000000e+00 -0.000000e+00
    outer loop
      vertex   -2.107500e+02 1.023265e+02 2.080678e+02
      vertex   -2.107500e+02 1.349000e+02 2.011500e+02
      vertex   -2.107500e+02 1.002769e+02 2.063952e+02
    endloop
  endfacet
  facet normal -1.000000e+00 0.000000e+00 -0.000000e+00
    outer loop
      vertex   -2.107500e+02 1.002769e+02 2.063952e+02
      vertex   -2.107500e+02 1.349000e+02 2.011500e+02
      vertex   -2.107500e+02 9.899586e+01 2.053498e+02
    endloop
  endfacet
  facet normal -1.000000e+00 -0.000000e+00 0.000000e+00
    outer loop
      vertex   -2.107500e+02 1.002769e+02 2.063952e+02
      vertex   -2.107500e+02 9.899586e+01 2.053498e+02
      vertex   -2.107500e+02 9.384950e+01 2.346500e+02
    endloop
  endfacet
  facet normal -1.000000e+00 0.000000e+00 0.000000e+00
    outer loop
      vertex   -2.107500e+02 9.384950e+01 2.346500e+02
      vertex   -2.107500e+02 9.899586e+01 2.053498e+02
      vertex   -2.107500e+02 9.384950e+01 2.011500e+02
    endloop
  endfacet
  facet normal -1.000000e+00 -0.000000e+00 0.000000e+00
    outer loop
      vertex   -2.107500e+02 1.244741e+02 2.261417e+02
      vertex   -2.107500e+02 1.157019e+02 2.189830e+02
      vertex   -2.107500e+02 9.384950e+01 2.346500e+02
    endloop
  endfacet
  facet normal -1.000000e+00 0.000000e+00 0.000000e+00
    outer loop
      vertex   -2.107500e+02 1.036075e+02 2.091132e+02
      vertex   -2.107500e+02 1.110005e+02 2.151464e+02
      vertex   -2.107500e+02 1.349000e+02 2.011500e+02
    endloop
  endfacet
  facet normal -1.000000e+00 0.000000e+00 0.000000e+00
    outer loop
      vertex   -2.107500e+02 1.254644e+02 2.269499e+02
      vertex   -2.107500e+02 1.349000e+02 2.346500e+02
      vertex   -2.107500e+02 1.349000e+02 2.011500e+02
    endloop
  endfacet
  facet normal -1.000000e+00 0.000000e+00 0.000000e+00
    outer loop
      vertex   -2.107500e+02 1.349000e+02 2.011500e+02
      vertex   -2.107500e+02 9.384950e+01 2.011500e+02
      vertex   -2.107500e+02 9.899586e+01 2.053498e+02
    endloop
  endfacet
  facet normal -1.000000e+00 -0.000000e+00 0.000000e+00
    outer loop
      vertex   -2.107500e+02 1.023265e+02 2.080678e+02
      vertex   -2.107500e+02 1.002769e+02 2.063952e+02
      vertex   -2.107500e+02 9.384950e+01 2.346500e+02
    endloop
  endfacet
  facet normal 0.000000e+00 -1.000000e+00 -0.000000e+00
    outer loop
      vertex   -2.107422e+02 9.384950e+01 2.349005e+02
      vertex   -2.107500e+02 9.384950e+01 2.346500e+02
      vertex   -2.107421e+02 9.384950e+01 2.349006e+02
    endloop
  endfacet
  facet normal 0.000000e+00 -1.000000e+00 -0.000000e+00
    outer loop
      vertex   -2.107421e+02 9.384950e+01 2.349006e+02
      vertex   -2.107500e+02 9.384950e+01 2.346500e+02
      vertex   -2.106183e+02 9.384950e+01 2.356679e+02
    endloop
  endfacet
  facet normal 0.000000e+00 -1.000000e+00 -0.000000e+00
    outer loop
      vertex   -2.106183e+02 9.384950e+01 2.356679e+02
      vertex   -2.107500e+02 9.384950e+01 2.346500e+02
      vertex   -2.106180e+02 9.384950e+01 2.356688e+02
    endloop
  endfacet
  facet normal 0.000000e+00 -1.000000e+00 -0.000000e+00
    outer loop
      vertex   -2.106180e+02 9.384950e+01 2.356688e+02
      vertex   -2.107500e+02 9.384950e+01 2.346500e+02
      vertex   -2.103477e+02 9.384950e+01 2.363983e+02
    endloop
  endfacet
  facet normal 0.000000e+00 -1.000000e+00 -0.000000e+00
    outer loop
      vertex   -2.103477e+02 9.384950e+01 2.363983e+02
      vertex   -2.107500e+02 9.384950e+01 2.346500e+02
      vertex   -2.103469e+02 9.384950e+01 2.363997e+02
    endloop
  endfacet
  facet normal 0.000000e+00 -1.000000e+00 -0.000000e+00
    outer loop
      vertex   -2.103469e+02 9.384950e+01 2.363997e+02
      vertex   -2.107500e+02 9.384950e+01 2.346500e+02
      vertex   -2.101969e+02 9.384950e+01 1.991205e+02
    endloop
  endfacet
  facet normal 0.000000e+00 -1.000000e+00 0.000000e+00
    outer loop
      vertex   -2.103469e+02 9.384950e+01 2.363997e+02
      vertex   -2.101969e+02 9.384950e+01 1.991205e+02
      vertex   -2.099399e+02 9.384950e+01 2.370634e+02
    endloop
  endfacet
  facet normal 0.000000e+00 -1.000000e+00 -0.000000e+00
    outer loop
      vertex   -2.099399e+02 9.384950e+01 2.370634e+02
      vertex   -2.101969e+02 9.384950e+01 1.991205e+02
      vertex   -2.097383e+02 9.384950e+01 1.984912e+02
    endloop
  endfacet
  facet normal 0.000000e+00 -1.000000e+00 0.000000e+00
    outer loop
      vertex   -2.099399e+02 9.384950e+01 2.370634e+02
      vertex   -2.097383e+02 9.384950e+01 1.984912e+02
      vertex   -2.099387e+02 9.384950e+01 2.370649e+02
    endloop
  endfacet
  facet normal 0.000000e+00 -1.000000e+00 0.000000e+00
    outer loop
      vertex   -2.099387e+02 9.384950e+01 2.370649e+02
      vertex   -2.097383e+02 9.384950e+01 1.984912e+02
      vertex   -2.097370e+02 9.384950e+01 1.984897e+02
    endloop
  endfacet
  facet normal 0.000000e+00 -1.000000e+00 0.000000e+00
    outer loop
      vertex   -2.099387e+02 9.384950e+01 2.370649e+02
      vertex   -2.097370e+02 9.384950e+01 1.984897e+02
      vertex   -2.094103e+02 9.384950e+01 2.376370e+02
    endloop
  endfacet
  facet normal 0.000000e+00 -1.000000e+00 -0.000000e+00
    outer loop
      vertex   -2.094103e+02 9.384950e+01 2.376370e+02
      vertex   -2.097370e+02 9.384950e+01 1.984897e+02
      vertex   -2.091648e+02 9.384950e+01 1.979613e+02
    endloop
  endfacet
  facet normal 0.000000e+00 -1.000000e+00 0.000000e+00
    outer loop
      vertex   -2.094103e+02 9.384950e+01 2.376370e+02
      vertex   -2.091648e+02 9.384950e+01 1.979613e+02
      vertex   -2.094088e+02 9.384950e+01 2.376383e+02
    endloop
  endfacet
  facet normal 0.000000e+00 -1.000000e+00 0.000000e+00
    outer loop
      vertex   -2.094088e+02 9.384950e+01 2.376383e+02
      vertex   -2.091648e+02 9.384950e+01 1.979613e+02
      vertex   -2.091634e+02 9.384950e+01 1.979601e+02
    endloop
  endfacet
  facet normal 0.000000e+00 -1.000000e+00 0.000000e+00
    outer loop
      vertex   -2.094088e+02 9.384950e+01 2.376383e+02
      vertex   -2.091634e+02 9.384950e+01 1.979601e+02
      vertex   -2.087796e+02 9.384950e+01 2.380969e+02
    endloop
  endfacet
  facet normal 0.000000e+00 -1.000000e+00 -0.000000e+00
    outer loop
      vertex   -2.087796e+02 9.384950e+01 2.380969e+02
      vertex   -2.091634e+02 9.384950e+01 1.979601e+02
      vertex   -2.084997e+02 9.384950e+01 1.975531e+02
    endloop
  endfacet
  facet normal 0.000000e+00 -1.000000e+00 0.000000e+00
    outer loop
      vertex   -2.087796e+02 9.384950e+01 2.380969e+02
      vertex   -2.084997e+02 9.384950e+01 1.975531e+02
      vertex   -2.087780e+02 9.384950e+01 2.380977e+02
    endloop
  endfacet
  facet normal 0.000000e+00 -1.000000e+00 0.000000e+00
    outer loop
      vertex   -2.087780e+02 9.384950e+01 2.380977e+02
      vertex   -2.084997e+02 9.384950e+01 1.975531e+02
      vertex   -2.084983e+02 9.384950e+01 1.975523e+02
    endloop
  endfacet
  facet normal 0.000000e+00 -1.000000e+00 0.000000e+00
    outer loop
      vertex   -2.087780e+02 9.384950e+01 2.380977e+02
      vertex   -2.084983e+02 9.384950e+01 1.975523e+02
      vertex   -2.080723e+02 9.384950e+01 2.384251e+02
    endloop
  endfacet
  facet normal 0.000000e+00 -1.000000e+00 -0.000000e+00
    outer loop
      vertex   -2.080723e+02 9.384950e+01 2.384251e+02
      vertex   -2.084983e+02 9.384950e+01 1.975523e+02
      vertex   -2.077688e+02 9.384950e+01 1.972820e+02
    endloop
  endfacet
  facet normal 0.000000e+00 -1.000000e+00 0.000000e+00
    outer loop
      vertex   -2.080723e+02 9.384950e+01 2.384251e+02
      vertex   -2.077688e+02 9.384950e+01 1.972820e+02
      vertex   -2.080711e+02 9.384950e+01 2.384255e+02
    endloop
  endfacet
  facet normal 0.000000e+00 -1.000000e+00 0.000000e+00
    outer loop
      vertex   -2.080711e+02 9.384950e+01 2.384255e+02
      vertex   -2.077688e+02 9.384950e+01 1.972820e+02
      vertex   -2.075433e+02 9.384950e+01 2.385706e+02
    endloop
  endfacet
  facet normal 0.000000e+00 -1.000000e+00 0.000000e+00
    outer loop
      vertex   -2.075433e+02 9.384950e+01 2.385706e+02
      vertex   -2.077688e+02 9.384950e+01 1.972820e+02
      vertex   -2.077679e+02 9.384950e+01 1.972817e+02
    endloop
  endfacet
  facet normal 0.000000e+00 -1.000000e+00 -0.000000e+00
    outer loop
      vertex   -2.075433e+02 9.384950e+01 2.385706e+02
      vertex   -2.077679e+02 9.384950e+01 1.972817e+02
      vertex   -2.070006e+02 9.384950e+01 1.971579e+02
    endloop
  endfacet
  facet normal 0.000000e+00 -1.000000e+00 0.000000e+00
    outer loop
      vertex   -2.107500e+02 9.384950e+01 2.346500e+02
      vertex   -2.107500e+02 9.384950e+01 2.011500e+02
      vertex   -2.101969e+02 9.384950e+01 1.991205e+02
    endloop
  endfacet
  facet normal 0.000000e+00 -1.000000e+00 0.000000e+00
    outer loop
      vertex   -2.101969e+02 9.384950e+01 1.991205e+02
      vertex   -2.107500e+02 9.384950e+01 2.011500e+02
      vertex   -2.101977e+02 9.384950e+01 1.991220e+02
    endloop
  endfacet
  facet normal 0.000000e+00 -1.000000e+00 0.000000e+00
    outer loop
      vertex   -2.101977e+02 9.384950e+01 1.991220e+02
      vertex   -2.107500e+02 9.384950e+01 2.011500e+02
      vertex   -2.105251e+02 9.384950e+01 1.998277e+02
    endloop
  endfacet
  facet normal 0.000000e+00 -1.000000e+00 0.000000e+00
    outer loop
      vertex   -2.105251e+02 9.384950e+01 1.998277e+02
      vertex   -2.107500e+02 9.384950e+01 2.011500e+02
      vertex   -2.105255e+02 9.384950e+01 1.998289e+02
    endloop
  endfacet
  facet normal 0.000000e+00 -1.000000e+00 0.000000e+00
    outer loop
      vertex   -2.105255e+02 9.384950e+01 1.998289e+02
      vertex   -2.107500e+02 9.384950e+01 2.011500e+02
      vertex   -2.106705e+02 9.384950e+01 2.003567e+02
    endloop
  endfacet
  facet normal 0.000000e+00 -1.000000e+00 0.000000e+00
    outer loop
      vertex   -2.106705e+02 9.384950e+01 2.003567e+02
      vertex   -2.107500e+02 9.384950e+01 2.011500e+02
      vertex   -2.107421e+02 9.384950e+01 2.008994e+02
    endloop
  endfacet
  facet normal 0.000000e+00 -1.000000e+00 0.000000e+00
    outer loop
      vertex   -2.107421e+02 9.384950e+01 2.008994e+02
      vertex   -2.107500e+02 9.384950e+01 2.011500e+02
      vertex   -2.107422e+02 9.384950e+01 2.008996e+02
    endloop
  endfacet
  facet normal 0.000000e+00 -1.000000e+00 0.000000e+00
    outer loop
      vertex   -2.070005e+02 9.384950e+01 1.971579e+02
      vertex   -2.070005e+02 9.384950e+01 2.386422e+02
      vertex   -2.070006e+02 9.384950e+01 1.971579e+02
    endloop
  endfacet
  facet normal 0.000000e+00 -1.000000e+00 0.000000e+00
    outer loop
      vertex   -2.070006e+02 9.384950e+01 1.971579e+02
      vertex   -2.070005e+02 9.384950e+01 2.386422e+02
      vertex   -2.070006e+02 9.384950e+01 2.386421e+02
    endloop
  endfacet
  facet normal 0.000000e+00 -1.000000e+00 0.000000e+00
    outer loop
      vertex   -2.070006e+02 9.384950e+01 1.971579e+02
      vertex   -2.070006e+02 9.384950e+01 2.386421e+02
      vertex   -2.075433e+02 9.384950e+01 2.385706e+02
    endloop
  endfacet
  facet normal 0.000000e+00 -1.000000e+00 0.000000e+00
    outer loop
      vertex   -2.067600e+02 9.384950e+01 1.971503e+02
      vertex   -2.067600e+02 9.384950e+01 2.386497e+02
      vertex   -2.070005e+02 9.384950e+01 1.971579e+02
    endloop
  endfacet
  facet normal 0.000000e+00 -1.000000e+00 0.000000e+00
    outer loop
      vertex   -2.070005e+02 9.384950e+01 1.971579e+02
      vertex   -2.067600e+02 9.384950e+01 2.386497e+02
      vertex   -2.070005e+02 9.384950e+01 2.386422e+02
    endloop
  endfacet
  facet normal -9.951839e-01 4.076127e-04 9.802491e-02
    outer loop
      vertex   -2.107422e+02 9.384950e+01 2.349005e+02
      vertex   -2.107421e+02 9.384950e+01 2.349006e+02
      vertex   -2.107500e+02 1.349000e+02 2.346500e+02
    endloop
  endfacet
  facet normal -9.951839e-01 4.076127e-04 9.802491e-02
    outer loop
      vertex   -2.107500e+02 1.349000e+02 2.346500e+02
      vertex   -2.107421e+02 9.384950e+01 2.349006e+02
      vertex   -2.106731e+02 1.349000e+02 2.354304e+02
    endloop
  endfacet
  facet normal -9.872276e-01 -3.967194e-04 1.593155e-01
    outer loop
      vertex   -2.107421e+02 9.384950e+01 2.349006e+02
      vertex   -2.106183e+02 9.384950e+01 2.356679e+02
      vertex   -2.106731e+02 1.349000e+02 2.354304e+02
    endloop
  endfacet
  facet normal -9.569400e-01 4.015041e-04 2.902855e-01
    outer loop
      vertex   -2.106183e+02 9.384950e+01 2.356679e+02
      vertex   -2.106180e+02 9.384950e+01 2.356688e+02
      vertex   -2.106731e+02 1.349000e+02 2.354304e+02
    endloop
  endfacet
  facet normal -9.569400e-01 4.015041e-04 2.902855e-01
    outer loop
      vertex   -2.106731e+02 1.349000e+02 2.354304e+02
      vertex   -2.106180e+02 9.384950e+01 2.356688e+02
      vertex   -2.104455e+02 1.349000e+02 2.361807e+02
    endloop
  endfacet
  facet normal -9.995084e-01 0.000000e+00 3.135354e-02
    outer loop
      vertex   -2.107500e+02 9.384950e+01 2.346500e+02
      vertex   -2.107422e+02 9.384950e+01 2.349005e+02
      vertex   -2.107500e+02 1.349000e+02 2.346500e+02
    endloop
  endfacet
  facet normal -9.376738e-01 -3.931639e-04 3.475164e-01
    outer loop
      vertex   -2.106180e+02 9.384950e+01 2.356688e+02
      vertex   -2.103477e+02 9.384950e+01 2.363983e+02
      vertex   -2.104455e+02 1.349000e+02 2.361807e+02
    endloop
  endfacet
  facet normal -8.819189e-01 3.962712e-04 4.714010e-01
    outer loop
      vertex   -2.103477e+02 9.384950e+01 2.363983e+02
      vertex   -2.103469e+02 9.384950e+01 2.363997e+02
      vertex   -2.104455e+02 1.349000e+02 2.361807e+02
    endloop
  endfacet
  facet normal -8.819189e-01 3.962712e-04 4.714010e-01
    outer loop
      vertex   -2.104455e+02 1.349000e+02 2.361807e+02
      vertex   -2.103469e+02 9.384950e+01 2.363997e+02
      vertex   -2.100759e+02 1.349000e+02 2.368723e+02
    endloop
  endfacet
  facet normal -9.995084e-01 0.000000e+00 -3.135354e-02
    outer loop
      vertex   -2.107422e+02 9.384950e+01 2.008996e+02
      vertex   -2.107500e+02 9.384950e+01 2.011500e+02
      vertex   -2.107500e+02 1.349000e+02 2.011500e+02
    endloop
  endfacet
  facet normal -8.524592e-01 -3.899271e-04 5.227935e-01
    outer loop
      vertex   -2.103469e+02 9.384950e+01 2.363997e+02
      vertex   -2.099399e+02 9.384950e+01 2.370634e+02
      vertex   -2.100759e+02 1.349000e+02 2.368723e+02
    endloop
  endfacet
  facet normal -9.951839e-01 4.076127e-04 -9.802491e-02
    outer loop
      vertex   -2.107422e+02 9.384950e+01 2.008996e+02
      vertex   -2.107500e+02 1.349000e+02 2.011500e+02
      vertex   -2.107421e+02 9.384950e+01 2.008994e+02
    endloop
  endfacet
  facet normal -9.951839e-01 4.076127e-04 -9.802491e-02
    outer loop
      vertex   -2.107421e+02 9.384950e+01 2.008994e+02
      vertex   -2.107500e+02 1.349000e+02 2.011500e+02
      vertex   -2.106731e+02 1.349000e+02 2.003696e+02
    endloop
  endfacet
  facet normal -7.730244e-01 3.925921e-04 6.343762e-01
    outer loop
      vertex   -2.099399e+02 9.384950e+01 2.370634e+02
      vertex   -2.099387e+02 9.384950e+01 2.370649e+02
      vertex   -2.100759e+02 1.349000e+02 2.368723e+02
    endloop
  endfacet
  facet normal -7.730244e-01 3.925921e-04 6.343762e-01
    outer loop
      vertex   -2.100759e+02 1.349000e+02 2.368723e+02
      vertex   -2.099387e+02 9.384950e+01 2.370649e+02
      vertex   -2.095784e+02 1.349000e+02 2.374784e+02
    endloop
  endfacet
  facet normal -9.914115e-01 -2.142851e-05 -1.307795e-01
    outer loop
      vertex   -2.106705e+02 9.384950e+01 2.003567e+02
      vertex   -2.107421e+02 9.384950e+01 2.008994e+02
      vertex   -2.106731e+02 1.349000e+02 2.003696e+02
    endloop
  endfacet
  facet normal -7.346911e-01 -3.873867e-04 6.784017e-01
    outer loop
      vertex   -2.099387e+02 9.384950e+01 2.370649e+02
      vertex   -2.094103e+02 9.384950e+01 2.376370e+02
      vertex   -2.095784e+02 1.349000e+02 2.374784e+02
    endloop
  endfacet
  facet normal -9.642398e-01 2.253847e-05 -2.650314e-01
    outer loop
      vertex   -2.105255e+02 9.384950e+01 1.998289e+02
      vertex   -2.106705e+02 9.384950e+01 2.003567e+02
      vertex   -2.106731e+02 1.349000e+02 2.003696e+02
    endloop
  endfacet
  facet normal -6.343762e-01 3.889526e-04 7.730244e-01
    outer loop
      vertex   -2.094103e+02 9.384950e+01 2.376370e+02
      vertex   -2.094088e+02 9.384950e+01 2.376383e+02
      vertex   -2.095784e+02 1.349000e+02 2.374784e+02
    endloop
  endfacet
  facet normal -6.343762e-01 3.889526e-04 7.730244e-01
    outer loop
      vertex   -2.095784e+02 1.349000e+02 2.374784e+02
      vertex   -2.094088e+02 9.384950e+01 2.376383e+02
      vertex   -2.089723e+02 1.349000e+02 2.379759e+02
    endloop
  endfacet
  facet normal -9.569400e-01 3.814389e-04 -2.902855e-01
    outer loop
      vertex   -2.105251e+02 9.384950e+01 1.998277e+02
      vertex   -2.105255e+02 9.384950e+01 1.998289e+02
      vertex   -2.104455e+02 1.349000e+02 1.996193e+02
    endloop
  endfacet
  facet normal -9.569400e-01 3.814389e-04 -2.902855e-01
    outer loop
      vertex   -2.104455e+02 1.349000e+02 1.996193e+02
      vertex   -2.105255e+02 9.384950e+01 1.998289e+02
      vertex   -2.106731e+02 1.349000e+02 2.003696e+02
    endloop
  endfacet
  facet normal -5.889441e-01 -3.832495e-04 8.081737e-01
    outer loop
      vertex   -2.094088e+02 9.384950e+01 2.376383e+02
      vertex   -2.087796e+02 9.384950e+01 2.380969e+02
      vertex   -2.089723e+02 1.349000e+02 2.379759e+02
    endloop
  endfacet
  facet normal -9.071200e-01 -3.783173e-04 -4.208720e-01
    outer loop
      vertex   -2.101977e+02 9.384950e+01 1.991220e+02
      vertex   -2.105251e+02 9.384950e+01 1.998277e+02
      vertex   -2.104455e+02 1.349000e+02 1.996193e+02
    endloop
  endfacet
  facet normal -4.714010e-01 3.859400e-04 8.819189e-01
    outer loop
      vertex   -2.087796e+02 9.384950e+01 2.380969e+02
      vertex   -2.087780e+02 9.384950e+01 2.380977e+02
      vertex   -2.089723e+02 1.349000e+02 2.379759e+02
    endloop
  endfacet
  facet normal -4.714010e-01 3.859400e-04 8.819189e-01
    outer loop
      vertex   -2.089723e+02 1.349000e+02 2.379759e+02
      vertex   -2.087780e+02 9.384950e+01 2.380977e+02
      vertex   -2.082807e+02 1.349000e+02 2.383455e+02
    endloop
  endfacet
  facet normal -8.819189e-01 3.859400e-04 -4.714010e-01
    outer loop
      vertex   -2.101969e+02 9.384950e+01 1.991205e+02
      vertex   -2.101977e+02 9.384950e+01 1.991220e+02
      vertex   -2.100759e+02 1.349000e+02 1.989277e+02
    endloop
  endfacet
  facet normal -8.819189e-01 3.859400e-04 -4.714010e-01
    outer loop
      vertex   -2.100759e+02 1.349000e+02 1.989277e+02
      vertex   -2.101977e+02 9.384950e+01 1.991220e+02
      vertex   -2.104455e+02 1.349000e+02 1.996193e+02
    endloop
  endfacet
  facet normal -4.208720e-01 -3.783173e-04 9.071200e-01
    outer loop
      vertex   -2.087780e+02 9.384950e+01 2.380977e+02
      vertex   -2.080723e+02 9.384950e+01 2.384251e+02
      vertex   -2.082807e+02 1.349000e+02 2.383455e+02
    endloop
  endfacet
  facet normal -8.081737e-01 -3.832495e-04 -5.889441e-01
    outer loop
      vertex   -2.097383e+02 9.384950e+01 1.984912e+02
      vertex   -2.101969e+02 9.384950e+01 1.991205e+02
      vertex   -2.100759e+02 1.349000e+02 1.989277e+02
    endloop
  endfacet
  facet normal -2.902855e-01 3.814389e-04 9.569400e-01
    outer loop
      vertex   -2.080723e+02 9.384950e+01 2.384251e+02
      vertex   -2.080711e+02 9.384950e+01 2.384255e+02
      vertex   -2.082807e+02 1.349000e+02 2.383455e+02
    endloop
  endfacet
  facet normal -2.902855e-01 3.814389e-04 9.569400e-01
    outer loop
      vertex   -2.082807e+02 1.349000e+02 2.383455e+02
      vertex   -2.080711e+02 9.384950e+01 2.384255e+02
      vertex   -2.075304e+02 1.349000e+02 2.385732e+02
    endloop
  endfacet
  facet normal -7.730244e-01 3.889526e-04 -6.343762e-01
    outer loop
      vertex   -2.097370e+02 9.384950e+01 1.984897e+02
      vertex   -2.097383e+02 9.384950e+01 1.984912e+02
      vertex   -2.095784e+02 1.349000e+02 1.983216e+02
    endloop
  endfacet
  facet normal -7.730244e-01 3.889526e-04 -6.343762e-01
    outer loop
      vertex   -2.095784e+02 1.349000e+02 1.983216e+02
      vertex   -2.097383e+02 9.384950e+01 1.984912e+02
      vertex   -2.100759e+02 1.349000e+02 1.989277e+02
    endloop
  endfacet
  facet normal -2.650314e-01 2.253847e-05 9.642398e-01
    outer loop
      vertex   -2.080711e+02 9.384950e+01 2.384255e+02
      vertex   -2.075433e+02 9.384950e+01 2.385706e+02
      vertex   -2.075304e+02 1.349000e+02 2.385732e+02
    endloop
  endfacet
  facet normal -6.784017e-01 -3.873867e-04 -7.346911e-01
    outer loop
      vertex   -2.091648e+02 9.384950e+01 1.979613e+02
      vertex   -2.097370e+02 9.384950e+01 1.984897e+02
      vertex   -2.095784e+02 1.349000e+02 1.983216e+02
    endloop
  endfacet
  facet normal -1.307795e-01 -2.142851e-05 9.914115e-01
    outer loop
      vertex   -2.075433e+02 9.384950e+01 2.385706e+02
      vertex   -2.070006e+02 9.384950e+01 2.386421e+02
      vertex   -2.075304e+02 1.349000e+02 2.385732e+02
    endloop
  endfacet
  facet normal -6.343762e-01 3.925921e-04 -7.730244e-01
    outer loop
      vertex   -2.091634e+02 9.384950e+01 1.979601e+02
      vertex   -2.091648e+02 9.384950e+01 1.979613e+02
      vertex   -2.089723e+02 1.349000e+02 1.978241e+02
    endloop
  endfacet
  facet normal -6.343762e-01 3.925921e-04 -7.730244e-01
    outer loop
      vertex   -2.089723e+02 1.349000e+02 1.978241e+02
      vertex   -2.091648e+02 9.384950e+01 1.979613e+02
      vertex   -2.095784e+02 1.349000e+02 1.983216e+02
    endloop
  endfacet
  facet normal -9.802491e-02 4.076127e-04 9.951839e-01
    outer loop
      vertex   -2.070005e+02 9.384950e+01 2.386422e+02
      vertex   -2.067600e+02 1.332610e+02 2.386497e+02
      vertex   -2.070006e+02 9.384950e+01 2.386421e+02
    endloop
  endfacet
  facet normal -9.802491e-02 4.076127e-04 9.951839e-01
    outer loop
      vertex   -2.070006e+02 9.384950e+01 2.386421e+02
      vertex   -2.067600e+02 1.332610e+02 2.386497e+02
      vertex   -2.075304e+02 1.349000e+02 2.385732e+02
    endloop
  endfacet
  facet normal -9.802491e-02 4.076127e-04 9.951839e-01
    outer loop
      vertex   -2.075304e+02 1.349000e+02 2.385732e+02
      vertex   -2.067600e+02 1.332610e+02 2.386497e+02
      vertex   -2.067600e+02 1.349000e+02 2.386490e+02
    endloop
  endfacet
  facet normal -5.227935e-01 -3.899271e-04 -8.524592e-01
    outer loop
      vertex   -2.084997e+02 9.384950e+01 1.975531e+02
      vertex   -2.091634e+02 9.384950e+01 1.979601e+02
      vertex   -2.089723e+02 1.349000e+02 1.978241e+02
    endloop
  endfacet
  facet normal -3.135354e-02 2.259497e-17 9.995084e-01
    outer loop
      vertex   -2.070005e+02 9.384950e+01 2.386422e+02
      vertex   -2.067600e+02 9.384950e+01 2.386497e+02
      vertex   -2.067600e+02 1.332610e+02 2.386497e+02
    endloop
  endfacet
  facet normal -4.714010e-01 3.962712e-04 -8.819189e-01
    outer loop
      vertex   -2.084983e+02 9.384950e+01 1.975523e+02
      vertex   -2.084997e+02 9.384950e+01 1.975531e+02
      vertex   -2.082807e+02 1.349000e+02 1.974545e+02
    endloop
  endfacet
  facet normal -4.714010e-01 3.962712e-04 -8.819189e-01
    outer loop
      vertex   -2.082807e+02 1.349000e+02 1.974545e+02
      vertex   -2.084997e+02 9.384950e+01 1.975531e+02
      vertex   -2.089723e+02 1.349000e+02 1.978241e+02
    endloop
  endfacet
  facet normal 1.000000e+00 -1.291603e-14 0.000000e+00
    outer loop
      vertex   -2.067600e+02 9.384950e+01 1.971503e+02
      vertex   -2.067600e+02 9.605000e+01 2.347021e+02
      vertex   -2.067600e+02 9.384950e+01 2.386497e+02
    endloop
  endfacet
  facet normal 1.000000e+00 -2.618689e-16 7.053757e-15
    outer loop
      vertex   -2.067600e+02 9.384950e+01 2.386497e+02
      vertex   -2.067600e+02 9.605000e+01 2.347021e+02
      vertex   -2.067600e+02 1.310500e+02 2.360015e+02
    endloop
  endfacet
  facet normal 1.000000e+00 -7.211524e-16 6.020906e-16
    outer loop
      vertex   -2.067600e+02 9.384950e+01 2.386497e+02
      vertex   -2.067600e+02 1.310500e+02 2.360015e+02
      vertex   -2.067600e+02 1.332610e+02 2.386497e+02
    endloop
  endfacet
  facet normal 1.000000e+00 0.000000e+00 0.000000e+00
    outer loop
      vertex   -2.067600e+02 1.332610e+02 2.386497e+02
      vertex   -2.067600e+02 1.310500e+02 2.360015e+02
      vertex   -2.067600e+02 1.319430e+02 2.366944e+02
    endloop
  endfacet
  facet normal 1.000000e+00 0.000000e+00 0.000000e+00
    outer loop
      vertex   -2.067600e+02 1.332610e+02 2.386497e+02
      vertex   -2.067600e+02 1.319430e+02 2.366944e+02
      vertex   -2.067600e+02 1.336979e+02 2.366944e+02
    endloop
  endfacet
  facet normal 1.000000e+00 -7.211524e-16 -6.020906e-16
    outer loop
      vertex   -2.067600e+02 1.332610e+02 1.971503e+02
      vertex   -2.067600e+02 1.310500e+02 1.997986e+02
      vertex   -2.067600e+02 9.384950e+01 1.971503e+02
    endloop
  endfacet
  facet normal 1.000000e+00 -2.618689e-16 -7.053757e-15
    outer loop
      vertex   -2.067600e+02 9.384950e+01 1.971503e+02
      vertex   -2.067600e+02 1.310500e+02 1.997986e+02
      vertex   -2.067600e+02 9.605000e+01 2.010979e+02
    endloop
  endfacet
  facet normal 1.000000e+00 -1.291603e-14 0.000000e+00
    outer loop
      vertex   -2.067600e+02 9.384950e+01 1.971503e+02
      vertex   -2.067600e+02 9.605000e+01 2.010979e+02
      vertex   -2.067600e+02 9.605000e+01 2.347021e+02
    endloop
  endfacet
  facet normal 1.000000e+00 0.000000e+00 -0.000000e+00
    outer loop
      vertex   -2.067600e+02 1.349000e+02 1.971510e+02
      vertex   -2.067600e+02 1.349000e+02 1.971638e+02
      vertex   -2.067600e+02 1.332610e+02 1.971503e+02
    endloop
  endfacet
  facet normal 1.000000e+00 0.000000e+00 0.000000e+00
    outer loop
      vertex   -2.067600e+02 1.332610e+02 1.971503e+02
      vertex   -2.067600e+02 1.349000e+02 1.971638e+02
      vertex   -2.067600e+02 1.349000e+02 1.979486e+02
    endloop
  endfacet
  facet normal 1.000000e+00 0.000000e+00 0.000000e+00
    outer loop
      vertex   -2.067600e+02 1.332610e+02 1.971503e+02
      vertex   -2.067600e+02 1.349000e+02 1.979486e+02
      vertex   -2.067600e+02 1.337615e+02 1.990871e+02
    endloop
  endfacet
  facet normal 1.000000e+00 0.000000e+00 0.000000e+00
    outer loop
      vertex   -2.067600e+02 1.337615e+02 1.990871e+02
      vertex   -2.067600e+02 1.337430e+02 1.991056e+02
      vertex   -2.067600e+02 1.332610e+02 1.971503e+02
    endloop
  endfacet
  facet normal 1.000000e+00 0.000000e+00 -0.000000e+00
    outer loop
      vertex   -2.067600e+02 1.332610e+02 1.971503e+02
      vertex   -2.067600e+02 1.337430e+02 1.991056e+02
      vertex   -2.067600e+02 1.319881e+02 1.991056e+02
    endloop
  endfacet
  facet normal 1.000000e+00 0.000000e+00 0.000000e+00
    outer loop
      vertex   -2.067600e+02 1.332610e+02 1.971503e+02
      vertex   -2.067600e+02 1.319881e+02 1.991056e+02
      vertex   -2.067600e+02 1.319430e+02 1.991056e+02
    endloop
  endfacet
  facet normal 1.000000e+00 0.000000e+00 0.000000e+00
    outer loop
      vertex   -2.067600e+02 1.332610e+02 1.971503e+02
      vertex   -2.067600e+02 1.319430e+02 1.991056e+02
      vertex   -2.067600e+02 1.310500e+02 1.997986e+02
    endloop
  endfacet
  facet normal 1.000000e+00 0.000000e+00 0.000000e+00
    outer loop
      vertex   -2.067600e+02 1.310500e+02 1.997986e+02
      vertex   -2.067600e+02 1.319430e+02 1.991056e+02
      vertex   -2.067600e+02 1.312674e+02 1.997812e+02
    endloop
  endfacet
  facet normal 1.000000e+00 -0.000000e+00 0.000000e+00
    outer loop
      vertex   -2.067600e+02 1.310500e+02 1.997986e+02
      vertex   -2.067600e+02 1.312674e+02 1.997812e+02
      vertex   -2.067600e+02 1.312424e+02 1.997986e+02
    endloop
  endfacet
  facet normal 1.000000e+00 -0.000000e+00 0.000000e+00
    outer loop
      vertex   -2.067600e+02 1.312424e+02 1.997986e+02
      vertex   -2.067600e+02 1.312674e+02 1.997812e+02
      vertex   -2.067600e+02 1.312500e+02 1.997986e+02
    endloop
  endfacet
  facet normal 1.000000e+00 0.000000e+00 -0.000000e+00
    outer loop
      vertex   -2.067600e+02 1.310500e+02 1.997986e+02
      vertex   -2.067600e+02 1.310500e+02 1.997996e+02
      vertex   -2.067600e+02 9.605000e+01 2.010979e+02
    endloop
  endfacet
  facet normal 1.000000e+00 0.000000e+00 0.000000e+00
    outer loop
      vertex   -2.067600e+02 9.605000e+01 2.010979e+02
      vertex   -2.067600e+02 1.310500e+02 1.997996e+02
      vertex   -2.067600e+02 1.310500e+02 1.998006e+02
    endloop
  endfacet
  facet normal 1.000000e+00 0.000000e+00 0.000000e+00
    outer loop
      vertex   -2.067600e+02 9.605000e+01 2.010979e+02
      vertex   -2.067600e+02 1.310500e+02 1.998006e+02
      vertex   -2.067600e+02 1.310500e+02 1.998017e+02
    endloop
  endfacet
  facet normal 1.000000e+00 0.000000e+00 -0.000000e+00
    outer loop
      vertex   -2.067600e+02 1.310500e+02 1.998017e+02
      vertex   -2.067600e+02 1.310500e+02 1.998076e+02
      vertex   -2.067600e+02 9.605000e+01 2.010979e+02
    endloop
  endfacet
  facet normal 1.000000e+00 -0.000000e+00 0.000000e+00
    outer loop
      vertex   -2.067600e+02 9.605000e+01 2.010979e+02
      vertex   -2.067600e+02 1.310500e+02 1.998076e+02
      vertex   -2.067600e+02 1.310500e+02 2.010979e+02
    endloop
  endfacet
  facet normal 1.000000e+00 0.000000e+00 -0.000000e+00
    outer loop
      vertex   -2.067600e+02 1.310500e+02 2.347021e+02
      vertex   -2.067600e+02 1.310500e+02 2.359924e+02
      vertex   -2.067600e+02 9.605000e+01 2.347021e+02
    endloop
  endfacet
  facet normal 1.000000e+00 0.000000e+00 0.000000e+00
    outer loop
      vertex   -2.067600e+02 9.605000e+01 2.347021e+02
      vertex   -2.067600e+02 1.310500e+02 2.359924e+02
      vertex   -2.067600e+02 1.310500e+02 2.359942e+02
    endloop
  endfacet
  facet normal 1.000000e+00 0.000000e+00 0.000000e+00
    outer loop
      vertex   -2.067600e+02 9.605000e+01 2.347021e+02
      vertex   -2.067600e+02 1.310500e+02 2.359942e+02
      vertex   -2.067600e+02 1.310500e+02 2.359994e+02
    endloop
  endfacet
  facet normal 1.000000e+00 0.000000e+00 -0.000000e+00
    outer loop
      vertex   -2.067600e+02 1.310500e+02 2.359994e+02
      vertex   -2.067600e+02 1.310500e+02 2.360005e+02
      vertex   -2.067600e+02 9.605000e+01 2.347021e+02
    endloop
  endfacet
  facet normal 1.000000e+00 0.000000e+00 0.000000e+00
    outer loop
      vertex   -2.067600e+02 9.605000e+01 2.347021e+02
      vertex   -2.067600e+02 1.310500e+02 2.360005e+02
      vertex   -2.067600e+02 1.310500e+02 2.360015e+02
    endloop
  endfacet
  facet normal 1.000000e+00 0.000000e+00 0.000000e+00
    outer loop
      vertex   -2.067600e+02 1.319430e+02 2.366944e+02
      vertex   -2.067600e+02 1.310500e+02 2.360015e+02
      vertex   -2.067600e+02 1.319167e+02 2.366682e+02
    endloop
  endfacet
  facet normal 1.000000e+00 0.000000e+00 0.000000e+00
    outer loop
      vertex   -2.067600e+02 1.319167e+02 2.366682e+02
      vertex   -2.067600e+02 1.310500e+02 2.360015e+02
      vertex   -2.067600e+02 1.310576e+02 2.360015e+02
    endloop
  endfacet
  facet normal 1.000000e+00 0.000000e+00 0.000000e+00
    outer loop
      vertex   -2.067600e+02 1.319167e+02 2.366682e+02
      vertex   -2.067600e+02 1.310576e+02 2.360015e+02
      vertex   -2.067600e+02 1.312500e+02 2.360015e+02
    endloop
  endfacet
  facet normal 1.000000e+00 0.000000e+00 -0.000000e+00
    outer loop
      vertex   -2.067600e+02 1.336979e+02 2.366944e+02
      vertex   -2.067600e+02 1.337430e+02 2.366944e+02
      vertex   -2.067600e+02 1.332610e+02 2.386497e+02
    endloop
  endfacet
  facet normal 1.000000e+00 0.000000e+00 0.000000e+00
    outer loop
      vertex   -2.067600e+02 1.332610e+02 2.386497e+02
      vertex   -2.067600e+02 1.337430e+02 2.366944e+02
      vertex   -2.067600e+02 1.348710e+02 2.378225e+02
    endloop
  endfacet
  facet normal 1.000000e+00 0.000000e+00 0.000000e+00
    outer loop
      vertex   -2.067600e+02 1.332610e+02 2.386497e+02
      vertex   -2.067600e+02 1.348710e+02 2.378225e+02
      vertex   -2.067600e+02 1.349000e+02 2.386490e+02
    endloop
  endfacet
  facet normal 1.000000e+00 0.000000e+00 0.000000e+00
    outer loop
      vertex   -2.067600e+02 1.349000e+02 2.386490e+02
      vertex   -2.067600e+02 1.348710e+02 2.378225e+02
      vertex   -2.067600e+02 1.349000e+02 2.378617e+02
    endloop
  endfacet
  facet normal 1.000000e+00 0.000000e+00 0.000000e+00
    outer loop
      vertex   -2.067600e+02 1.349000e+02 2.378617e+02
      vertex   -2.067600e+02 1.348710e+02 2.378225e+02
      vertex   -2.067600e+02 1.349000e+02 2.378515e+02
    endloop
  endfacet
  facet normal -3.475164e-01 -3.931639e-04 -9.376738e-01
    outer loop
      vertex   -2.077688e+02 9.384950e+01 1.972820e+02
      vertex   -2.084983e+02 9.384950e+01 1.975523e+02
      vertex   -2.082807e+02 1.349000e+02 1.974545e+02
    endloop
  endfacet
  facet normal -3.135354e-02 2.261068e-17 -9.995084e-01
    outer loop
      vertex   -2.067600e+02 9.384950e+01 1.971503e+02
      vertex   -2.070005e+02 9.384950e+01 1.971579e+02
      vertex   -2.067600e+02 1.332610e+02 1.971503e+02
    endloop
  endfacet
  facet normal -2.902855e-01 4.015041e-04 -9.569400e-01
    outer loop
      vertex   -2.077679e+02 9.384950e+01 1.972817e+02
      vertex   -2.077688e+02 9.384950e+01 1.972820e+02
      vertex   -2.075304e+02 1.349000e+02 1.972269e+02
    endloop
  endfacet
  facet normal -2.902855e-01 4.015041e-04 -9.569400e-01
    outer loop
      vertex   -2.075304e+02 1.349000e+02 1.972269e+02
      vertex   -2.077688e+02 9.384950e+01 1.972820e+02
      vertex   -2.082807e+02 1.349000e+02 1.974545e+02
    endloop
  endfacet
  facet normal -9.802491e-02 4.076127e-04 -9.951839e-01
    outer loop
      vertex   -2.070005e+02 9.384950e+01 1.971579e+02
      vertex   -2.070006e+02 9.384950e+01 1.971579e+02
      vertex   -2.067600e+02 1.332610e+02 1.971503e+02
    endloop
  endfacet
  facet normal -9.802491e-02 4.076127e-04 -9.951839e-01
    outer loop
      vertex   -2.067600e+02 1.332610e+02 1.971503e+02
      vertex   -2.070006e+02 9.384950e+01 1.971579e+02
      vertex   -2.075304e+02 1.349000e+02 1.972269e+02
    endloop
  endfacet
  facet normal -9.802491e-02 4.076127e-04 -9.951839e-01
    outer loop
      vertex   -2.067600e+02 1.332610e+02 1.971503e+02
      vertex   -2.075304e+02 1.349000e+02 1.972269e+02
      vertex   -2.067600e+02 1.349000e+02 1.971510e+02
    endloop
  endfacet
  facet normal -1.593155e-01 -3.967194e-04 -9.872276e-01
    outer loop
      vertex   -2.070006e+02 9.384950e+01 1.971579e+02
      vertex   -2.077679e+02 9.384950e+01 1.972817e+02
      vertex   -2.075304e+02 1.349000e+02 1.972269e+02
    endloop
  endfacet
  facet normal 0.000000e+00 1.000000e+00 -0.000000e+00
    outer loop
      vertex   -2.067600e+02 1.310500e+02 1.998017e+02
      vertex   -2.077063e+02 1.310500e+02 2.001937e+02
      vertex   -2.067600e+02 1.310500e+02 1.998076e+02
    endloop
  endfacet
  facet normal 0.000000e+00 1.000000e+00 0.000000e+00
    outer loop
      vertex   -2.067600e+02 1.310500e+02 1.998076e+02
      vertex   -2.077063e+02 1.310500e+02 2.001937e+02
      vertex   -2.081024e+02 1.310500e+02 2.011500e+02
    endloop
  endfacet
  facet normal 0.000000e+00 1.000000e+00 -0.000000e+00
    outer loop
      vertex   -2.067600e+02 1.310500e+02 1.998006e+02
      vertex   -2.075014e+02 1.310500e+02 2.000255e+02
      vertex   -2.067600e+02 1.310500e+02 1.998017e+02
    endloop
  endfacet
  facet normal 0.000000e+00 1.000000e+00 0.000000e+00
    outer loop
      vertex   -2.067600e+02 1.310500e+02 1.998017e+02
      vertex   -2.075014e+02 1.310500e+02 2.000255e+02
      vertex   -2.077063e+02 1.310500e+02 2.001937e+02
    endloop
  endfacet
  facet normal 0.000000e+00 1.000000e+00 -0.000000e+00
    outer loop
      vertex   -2.067600e+02 1.310500e+02 1.997996e+02
      vertex   -2.072676e+02 1.310500e+02 1.999005e+02
      vertex   -2.067600e+02 1.310500e+02 1.998006e+02
    endloop
  endfacet
  facet normal 0.000000e+00 1.000000e+00 0.000000e+00
    outer loop
      vertex   -2.067600e+02 1.310500e+02 1.998006e+02
      vertex   -2.072676e+02 1.310500e+02 1.999005e+02
      vertex   -2.075014e+02 1.310500e+02 2.000255e+02
    endloop
  endfacet
  facet normal 0.000000e+00 1.000000e+00 -0.000000e+00
    outer loop
      vertex   -2.067600e+02 1.310500e+02 1.997986e+02
      vertex   -2.070139e+02 1.310500e+02 1.998236e+02
      vertex   -2.067600e+02 1.310500e+02 1.997996e+02
    endloop
  endfacet
  facet normal 0.000000e+00 1.000000e+00 0.000000e+00
    outer loop
      vertex   -2.067600e+02 1.310500e+02 1.997996e+02
      vertex   -2.070139e+02 1.310500e+02 1.998236e+02
      vertex   -2.072676e+02 1.310500e+02 1.999005e+02
    endloop
  endfacet
  facet normal 9.797937e-02 -0.000000e+00 9.951884e-01
    outer loop
      vertex   -2.067600e+02 1.310500e+02 1.997986e+02
      vertex   -2.067600e+02 1.312424e+02 1.997986e+02
      vertex   -2.070139e+02 1.310500e+02 1.998236e+02
    endloop
  endfacet
  facet normal 3.877567e-02 0.000000e+00 -9.992479e-01
    outer loop
      vertex   -2.067600e+02 9.605000e+01 2.347021e+02
      vertex   -2.081024e+02 9.605000e+01 2.346500e+02
      vertex   -2.067600e+02 1.310500e+02 2.347021e+02
    endloop
  endfacet
  facet normal 3.877567e-02 0.000000e+00 -9.992479e-01
    outer loop
      vertex   -2.067600e+02 1.310500e+02 2.347021e+02
      vertex   -2.081024e+02 9.605000e+01 2.346500e+02
      vertex   -2.081024e+02 1.310500e+02 2.346500e+02
    endloop
  endfacet
  facet normal 9.797937e-02 0.000000e+00 9.951884e-01
    outer loop
      vertex   -2.067600e+02 1.312500e+02 1.997986e+02
      vertex   -2.070139e+02 1.312500e+02 1.998236e+02
      vertex   -2.067600e+02 1.312424e+02 1.997986e+02
    endloop
  endfacet
  facet normal 9.797937e-02 0.000000e+00 9.951884e-01
    outer loop
      vertex   -2.067600e+02 1.312424e+02 1.997986e+02
      vertex   -2.070139e+02 1.312500e+02 1.998236e+02
      vertex   -2.070139e+02 1.310500e+02 1.998236e+02
    endloop
  endfacet
  facet normal 0.000000e+00 1.000000e+00 0.000000e+00
    outer loop
      vertex   -2.067600e+02 9.605000e+01 2.347021e+02
      vertex   -2.067600e+02 9.605000e+01 2.010979e+02
      vertex   -2.081024e+02 9.605000e+01 2.346500e+02
    endloop
  endfacet
  facet normal 0.000000e+00 1.000000e+00 0.000000e+00
    outer loop
      vertex   -2.081024e+02 9.605000e+01 2.346500e+02
      vertex   -2.067600e+02 9.605000e+01 2.010979e+02
      vertex   -2.081024e+02 9.605000e+01 2.011500e+02
    endloop
  endfacet
  facet normal 6.944891e-02 7.053979e-01 7.054011e-01
    outer loop
      vertex   -2.067600e+02 1.312500e+02 1.997986e+02
      vertex   -2.067600e+02 1.312674e+02 1.997812e+02
      vertex   -2.070139e+02 1.312500e+02 1.998236e+02
    endloop
  endfacet
  facet normal 6.944891e-02 7.053979e-01 7.054011e-01
    outer loop
      vertex   -2.070139e+02 1.312500e+02 1.998236e+02
      vertex   -2.067600e+02 1.312674e+02 1.997812e+02
      vertex   -2.071490e+02 1.319430e+02 1.991439e+02
    endloop
  endfacet
  facet normal 3.877567e-02 0.000000e+00 9.992479e-01
    outer loop
      vertex   -2.067600e+02 1.310500e+02 2.010979e+02
      vertex   -2.081024e+02 1.310500e+02 2.011500e+02
      vertex   -2.067600e+02 9.605000e+01 2.010979e+02
    endloop
  endfacet
  facet normal 3.877567e-02 0.000000e+00 9.992479e-01
    outer loop
      vertex   -2.067600e+02 9.605000e+01 2.010979e+02
      vertex   -2.081024e+02 1.310500e+02 2.011500e+02
      vertex   -2.081024e+02 9.605000e+01 2.011500e+02
    endloop
  endfacet
  facet normal 6.948688e-02 7.054073e-01 7.053879e-01
    outer loop
      vertex   -2.067600e+02 1.312674e+02 1.997812e+02
      vertex   -2.067600e+02 1.319430e+02 1.991056e+02
      vertex   -2.071490e+02 1.319430e+02 1.991439e+02
    endloop
  endfacet
  facet normal 0.000000e+00 1.000000e+00 0.000000e+00
    outer loop
      vertex   -2.067600e+02 1.310500e+02 2.010979e+02
      vertex   -2.067600e+02 1.310500e+02 1.998076e+02
      vertex   -2.081024e+02 1.310500e+02 2.011500e+02
    endloop
  endfacet
  facet normal 9.803423e-02 -0.000000e+00 9.951830e-01
    outer loop
      vertex   -2.067600e+02 1.319430e+02 1.991056e+02
      vertex   -2.067600e+02 1.319881e+02 1.991056e+02
      vertex   -2.071490e+02 1.319430e+02 1.991439e+02
    endloop
  endfacet
  facet normal 9.803423e-02 -0.000000e+00 9.951830e-01
    outer loop
      vertex   -2.071490e+02 1.319430e+02 1.991439e+02
      vertex   -2.067600e+02 1.319881e+02 1.991056e+02
      vertex   -2.071490e+02 1.337430e+02 1.991439e+02
    endloop
  endfacet
  facet normal 9.803423e-02 -0.000000e+00 9.951830e-01
    outer loop
      vertex   -2.067600e+02 1.319881e+02 1.991056e+02
      vertex   -2.067600e+02 1.337430e+02 1.991056e+02
      vertex   -2.071490e+02 1.337430e+02 1.991439e+02
    endloop
  endfacet
  facet normal 6.948797e-02 7.053961e-01 7.053990e-01
    outer loop
      vertex   -2.067600e+02 1.337430e+02 1.991056e+02
      vertex   -2.067600e+02 1.337615e+02 1.990871e+02
      vertex   -2.071490e+02 1.337430e+02 1.991439e+02
    endloop
  endfacet
  facet normal 6.948797e-02 7.053961e-01 7.053990e-01
    outer loop
      vertex   -2.071490e+02 1.337430e+02 1.991439e+02
      vertex   -2.067600e+02 1.337615e+02 1.990871e+02
      vertex   -2.073748e+02 1.349000e+02 1.980091e+02
    endloop
  endfacet
  facet normal 6.947227e-02 7.053925e-01 7.054041e-01
    outer loop
      vertex   -2.067600e+02 1.337615e+02 1.990871e+02
      vertex   -2.067600e+02 1.349000e+02 1.979486e+02
      vertex   -2.073748e+02 1.349000e+02 1.980091e+02
    endloop
  endfacet
  facet normal 0.000000e+00 1.000000e+00 -0.000000e+00
    outer loop
      vertex   -2.067600e+02 1.349000e+02 1.971510e+02
      vertex   -2.075304e+02 1.349000e+02 1.972269e+02
      vertex   -2.067600e+02 1.349000e+02 1.971638e+02
    endloop
  endfacet
  facet normal 0.000000e+00 1.000000e+00 0.000000e+00
    outer loop
      vertex   -2.067600e+02 1.349000e+02 1.971638e+02
      vertex   -2.075304e+02 1.349000e+02 1.972269e+02
      vertex   -2.073748e+02 1.349000e+02 1.980091e+02
    endloop
  endfacet
  facet normal 0.000000e+00 1.000000e+00 0.000000e+00
    outer loop
      vertex   -2.077063e+02 1.310500e+02 2.001937e+02
      vertex   -2.079995e+02 1.310500e+02 2.006325e+02
      vertex   -2.081024e+02 1.310500e+02 2.011500e+02
    endloop
  endfacet
  facet normal 0.000000e+00 1.000000e+00 0.000000e+00
    outer loop
      vertex   -2.077063e+02 1.310500e+02 2.001937e+02
      vertex   -2.078745e+02 1.310500e+02 2.003986e+02
      vertex   -2.079995e+02 1.310500e+02 2.006325e+02
    endloop
  endfacet
  facet normal 0.000000e+00 1.000000e+00 0.000000e+00
    outer loop
      vertex   -2.079995e+02 1.310500e+02 2.006325e+02
      vertex   -2.080765e+02 1.310500e+02 2.008862e+02
      vertex   -2.081024e+02 1.310500e+02 2.011500e+02
    endloop
  endfacet
  facet normal 0.000000e+00 1.000000e+00 0.000000e+00
    outer loop
      vertex   -2.067600e+02 1.310500e+02 2.359924e+02
      vertex   -2.067600e+02 1.310500e+02 2.347021e+02
      vertex   -2.081024e+02 1.310500e+02 2.346500e+02
    endloop
  endfacet
  facet normal 0.000000e+00 1.000000e+00 0.000000e+00
    outer loop
      vertex   -2.067600e+02 1.310500e+02 2.359942e+02
      vertex   -2.067600e+02 1.310500e+02 2.359924e+02
      vertex   -2.080765e+02 1.310500e+02 2.349139e+02
    endloop
  endfacet
  facet normal -0.000000e+00 1.000000e+00 0.000000e+00
    outer loop
      vertex   -2.080765e+02 1.310500e+02 2.349139e+02
      vertex   -2.067600e+02 1.310500e+02 2.359924e+02
      vertex   -2.081024e+02 1.310500e+02 2.346500e+02
    endloop
  endfacet
  facet normal 0.000000e+00 1.000000e+00 0.000000e+00
    outer loop
      vertex   -2.067600e+02 1.310500e+02 2.359994e+02
      vertex   -2.067600e+02 1.310500e+02 2.359942e+02
      vertex   -2.075014e+02 1.310500e+02 2.357745e+02
    endloop
  endfacet
  facet normal -0.000000e+00 1.000000e+00 0.000000e+00
    outer loop
      vertex   -2.075014e+02 1.310500e+02 2.357745e+02
      vertex   -2.067600e+02 1.310500e+02 2.359942e+02
      vertex   -2.080765e+02 1.310500e+02 2.349139e+02
    endloop
  endfacet
  facet normal 0.000000e+00 1.000000e+00 0.000000e+00
    outer loop
      vertex   -2.067600e+02 1.310500e+02 2.360015e+02
      vertex   -2.067600e+02 1.310500e+02 2.360005e+02
      vertex   -2.070139e+02 1.310500e+02 2.359765e+02
    endloop
  endfacet
  facet normal -0.000000e+00 1.000000e+00 0.000000e+00
    outer loop
      vertex   -2.070139e+02 1.310500e+02 2.359765e+02
      vertex   -2.067600e+02 1.310500e+02 2.360005e+02
      vertex   -2.072676e+02 1.310500e+02 2.358995e+02
    endloop
  endfacet
  facet normal 0.000000e+00 1.000000e+00 0.000000e+00
    outer loop
      vertex   -2.067600e+02 1.310500e+02 2.360005e+02
      vertex   -2.067600e+02 1.310500e+02 2.359994e+02
      vertex   -2.072676e+02 1.310500e+02 2.358995e+02
    endloop
  endfacet
  facet normal -0.000000e+00 1.000000e+00 0.000000e+00
    outer loop
      vertex   -2.072676e+02 1.310500e+02 2.358995e+02
      vertex   -2.067600e+02 1.310500e+02 2.359994e+02
      vertex   -2.075014e+02 1.310500e+02 2.357745e+02
    endloop
  endfacet
  facet normal 0.000000e+00 1.000000e+00 0.000000e+00
    outer loop
      vertex   -2.080765e+02 1.310500e+02 2.349139e+02
      vertex   -2.079995e+02 1.310500e+02 2.351676e+02
      vertex   -2.075014e+02 1.310500e+02 2.357745e+02
    endloop
  endfacet
  facet normal 0.000000e+00 1.000000e+00 0.000000e+00
    outer loop
      vertex   -2.079995e+02 1.310500e+02 2.351676e+02
      vertex   -2.077063e+02 1.310500e+02 2.356063e+02
      vertex   -2.075014e+02 1.310500e+02 2.357745e+02
    endloop
  endfacet
  facet normal 0.000000e+00 1.000000e+00 0.000000e+00
    outer loop
      vertex   -2.079995e+02 1.310500e+02 2.351676e+02
      vertex   -2.078745e+02 1.310500e+02 2.354014e+02
      vertex   -2.077063e+02 1.310500e+02 2.356063e+02
    endloop
  endfacet
  facet normal 9.951884e-01 0.000000e+00 9.797937e-02
    outer loop
      vertex   -2.081024e+02 1.310500e+02 2.011500e+02
      vertex   -2.080765e+02 1.310500e+02 2.008862e+02
      vertex   -2.080765e+02 1.312500e+02 2.008862e+02
    endloop
  endfacet
  facet normal 9.951884e-01 -0.000000e+00 9.797937e-02
    outer loop
      vertex   -2.081024e+02 1.310500e+02 2.011500e+02
      vertex   -2.080765e+02 1.312500e+02 2.008862e+02
      vertex   -2.081024e+02 1.312500e+02 2.011500e+02
    endloop
  endfacet
  facet normal 9.569366e-01 0.000000e+00 2.902969e-01
    outer loop
      vertex   -2.080765e+02 1.310500e+02 2.008862e+02
      vertex   -2.079995e+02 1.310500e+02 2.006325e+02
      vertex   -2.079995e+02 1.312500e+02 2.006325e+02
    endloop
  endfacet
  facet normal 9.569366e-01 -0.000000e+00 2.902969e-01
    outer loop
      vertex   -2.080765e+02 1.310500e+02 2.008862e+02
      vertex   -2.079995e+02 1.312500e+02 2.006325e+02
      vertex   -2.080765e+02 1.312500e+02 2.008862e+02
    endloop
  endfacet
  facet normal 8.819085e-01 0.000000e+00 4.714207e-01
    outer loop
      vertex   -2.079995e+02 1.310500e+02 2.006325e+02
      vertex   -2.078745e+02 1.310500e+02 2.003986e+02
      vertex   -2.078745e+02 1.312500e+02 2.003986e+02
    endloop
  endfacet
  facet normal 8.819085e-01 -0.000000e+00 4.714207e-01
    outer loop
      vertex   -2.079995e+02 1.310500e+02 2.006325e+02
      vertex   -2.078745e+02 1.312500e+02 2.003986e+02
      vertex   -2.079995e+02 1.312500e+02 2.006325e+02
    endloop
  endfacet
  facet normal 7.730173e-01 0.000000e+00 6.343850e-01
    outer loop
      vertex   -2.078745e+02 1.310500e+02 2.003986e+02
      vertex   -2.077063e+02 1.310500e+02 2.001937e+02
      vertex   -2.077063e+02 1.312500e+02 2.001937e+02
    endloop
  endfacet
  facet normal 7.730173e-01 -0.000000e+00 6.343850e-01
    outer loop
      vertex   -2.078745e+02 1.310500e+02 2.003986e+02
      vertex   -2.077063e+02 1.312500e+02 2.001937e+02
      vertex   -2.078745e+02 1.312500e+02 2.003986e+02
    endloop
  endfacet
  facet normal 6.343850e-01 0.000000e+00 7.730173e-01
    outer loop
      vertex   -2.077063e+02 1.310500e+02 2.001937e+02
      vertex   -2.075014e+02 1.310500e+02 2.000255e+02
      vertex   -2.075014e+02 1.312500e+02 2.000255e+02
    endloop
  endfacet
  facet normal 6.343850e-01 -0.000000e+00 7.730173e-01
    outer loop
      vertex   -2.077063e+02 1.310500e+02 2.001937e+02
      vertex   -2.075014e+02 1.312500e+02 2.000255e+02
      vertex   -2.077063e+02 1.312500e+02 2.001937e+02
    endloop
  endfacet
  facet normal 4.714207e-01 0.000000e+00 8.819085e-01
    outer loop
      vertex   -2.075014e+02 1.310500e+02 2.000255e+02
      vertex   -2.072676e+02 1.310500e+02 1.999005e+02
      vertex   -2.072676e+02 1.312500e+02 1.999005e+02
    endloop
  endfacet
  facet normal 4.714207e-01 -0.000000e+00 8.819085e-01
    outer loop
      vertex   -2.075014e+02 1.310500e+02 2.000255e+02
      vertex   -2.072676e+02 1.312500e+02 1.999005e+02
      vertex   -2.075014e+02 1.312500e+02 2.000255e+02
    endloop
  endfacet
  facet normal 2.902969e-01 0.000000e+00 9.569366e-01
    outer loop
      vertex   -2.072676e+02 1.310500e+02 1.999005e+02
      vertex   -2.070139e+02 1.310500e+02 1.998236e+02
      vertex   -2.070139e+02 1.312500e+02 1.998236e+02
    endloop
  endfacet
  facet normal 2.902969e-01 -0.000000e+00 9.569366e-01
    outer loop
      vertex   -2.072676e+02 1.310500e+02 1.999005e+02
      vertex   -2.070139e+02 1.312500e+02 1.998236e+02
      vertex   -2.072676e+02 1.312500e+02 1.999005e+02
    endloop
  endfacet
  facet normal 9.797937e-02 0.000000e+00 -9.951884e-01
    outer loop
      vertex   -2.067600e+02 1.310500e+02 2.360015e+02
      vertex   -2.070139e+02 1.310500e+02 2.359765e+02
      vertex   -2.067600e+02 1.310576e+02 2.360015e+02
    endloop
  endfacet
  facet normal 9.797937e-02 0.000000e+00 -9.951884e-01
    outer loop
      vertex   -2.067600e+02 1.310576e+02 2.360015e+02
      vertex   -2.070139e+02 1.310500e+02 2.359765e+02
      vertex   -2.070139e+02 1.312500e+02 2.359765e+02
    endloop
  endfacet
  facet normal 9.797937e-02 0.000000e+00 -9.951884e-01
    outer loop
      vertex   -2.067600e+02 1.312500e+02 2.360015e+02
      vertex   -2.067600e+02 1.310576e+02 2.360015e+02
      vertex   -2.070139e+02 1.312500e+02 2.359765e+02
    endloop
  endfacet
  facet normal 2.902969e-01 0.000000e+00 -9.569366e-01
    outer loop
      vertex   -2.070139e+02 1.310500e+02 2.359765e+02
      vertex   -2.072676e+02 1.310500e+02 2.358995e+02
      vertex   -2.072676e+02 1.312500e+02 2.358995e+02
    endloop
  endfacet
  facet normal 2.902969e-01 0.000000e+00 -9.569366e-01
    outer loop
      vertex   -2.070139e+02 1.310500e+02 2.359765e+02
      vertex   -2.072676e+02 1.312500e+02 2.358995e+02
      vertex   -2.070139e+02 1.312500e+02 2.359765e+02
    endloop
  endfacet
  facet normal 4.714207e-01 0.000000e+00 -8.819085e-01
    outer loop
      vertex   -2.072676e+02 1.310500e+02 2.358995e+02
      vertex   -2.075014e+02 1.310500e+02 2.357745e+02
      vertex   -2.075014e+02 1.312500e+02 2.357745e+02
    endloop
  endfacet
  facet normal 4.714207e-01 0.000000e+00 -8.819085e-01
    outer loop
      vertex   -2.072676e+02 1.310500e+02 2.358995e+02
      vertex   -2.075014e+02 1.312500e+02 2.357745e+02
      vertex   -2.072676e+02 1.312500e+02 2.358995e+02
    endloop
  endfacet
  facet normal 6.343850e-01 0.000000e+00 -7.730173e-01
    outer loop
      vertex   -2.075014e+02 1.310500e+02 2.357745e+02
      vertex   -2.077063e+02 1.310500e+02 2.356063e+02
      vertex   -2.077063e+02 1.312500e+02 2.356063e+02
    endloop
  endfacet
  facet normal 6.343850e-01 0.000000e+00 -7.730173e-01
    outer loop
      vertex   -2.075014e+02 1.310500e+02 2.357745e+02
      vertex   -2.077063e+02 1.312500e+02 2.356063e+02
      vertex   -2.075014e+02 1.312500e+02 2.357745e+02
    endloop
  endfacet
  facet normal 7.730173e-01 0.000000e+00 -6.343850e-01
    outer loop
      vertex   -2.077063e+02 1.310500e+02 2.356063e+02
      vertex   -2.078745e+02 1.310500e+02 2.354014e+02
      vertex   -2.078745e+02 1.312500e+02 2.354014e+02
    endloop
  endfacet
  facet normal 7.730173e-01 0.000000e+00 -6.343850e-01
    outer loop
      vertex   -2.077063e+02 1.310500e+02 2.356063e+02
      vertex   -2.078745e+02 1.312500e+02 2.354014e+02
      vertex   -2.077063e+02 1.312500e+02 2.356063e+02
    endloop
  endfacet
  facet normal 8.819085e-01 0.000000e+00 -4.714207e-01
    outer loop
      vertex   -2.078745e+02 1.310500e+02 2.354014e+02
      vertex   -2.079995e+02 1.310500e+02 2.351676e+02
      vertex   -2.079995e+02 1.312500e+02 2.351676e+02
    endloop
  endfacet
  facet normal 8.819085e-01 0.000000e+00 -4.714207e-01
    outer loop
      vertex   -2.078745e+02 1.310500e+02 2.354014e+02
      vertex   -2.079995e+02 1.312500e+02 2.351676e+02
      vertex   -2.078745e+02 1.312500e+02 2.354014e+02
    endloop
  endfacet
  facet normal 9.569366e-01 0.000000e+00 -2.902969e-01
    outer loop
      vertex   -2.079995e+02 1.310500e+02 2.351676e+02
      vertex   -2.080765e+02 1.310500e+02 2.349139e+02
      vertex   -2.080765e+02 1.312500e+02 2.349139e+02
    endloop
  endfacet
  facet normal 9.569366e-01 0.000000e+00 -2.902969e-01
    outer loop
      vertex   -2.079995e+02 1.310500e+02 2.351676e+02
      vertex   -2.080765e+02 1.312500e+02 2.349139e+02
      vertex   -2.079995e+02 1.312500e+02 2.351676e+02
    endloop
  endfacet
  facet normal 9.951884e-01 0.000000e+00 -9.797937e-02
    outer loop
      vertex   -2.080765e+02 1.310500e+02 2.349139e+02
      vertex   -2.081024e+02 1.312500e+02 2.346500e+02
      vertex   -2.080765e+02 1.312500e+02 2.349139e+02
    endloop
  endfacet
  facet normal 9.951884e-01 0.000000e+00 -9.797937e-02
    outer loop
      vertex   -2.080765e+02 1.310500e+02 2.349139e+02
      vertex   -2.081024e+02 1.310500e+02 2.346500e+02
      vertex   -2.081024e+02 1.312500e+02 2.346500e+02
    endloop
  endfacet
  facet normal 1.000000e+00 0.000000e+00 0.000000e+00
    outer loop
      vertex   -2.081024e+02 1.310500e+02 2.011500e+02
      vertex   -2.081024e+02 1.312500e+02 2.011500e+02
      vertex   -2.081024e+02 1.312500e+02 2.346500e+02
    endloop
  endfacet
  facet normal 1.000000e+00 0.000000e+00 0.000000e+00
    outer loop
      vertex   -2.081024e+02 1.312500e+02 2.346500e+02
      vertex   -2.081024e+02 1.310500e+02 2.346500e+02
      vertex   -2.081024e+02 1.310500e+02 2.011500e+02
    endloop
  endfacet
  facet normal 1.000000e+00 0.000000e+00 -0.000000e+00
    outer loop
      vertex   -2.081024e+02 1.310500e+02 2.011500e+02
      vertex   -2.081024e+02 1.310500e+02 2.346500e+02
      vertex   -2.081024e+02 9.605000e+01 2.011500e+02
    endloop
  endfacet
  facet normal 1.000000e+00 0.000000e+00 0.000000e+00
    outer loop
      vertex   -2.081024e+02 9.605000e+01 2.011500e+02
      vertex   -2.081024e+02 1.310500e+02 2.346500e+02
      vertex   -2.081024e+02 9.605000e+01 2.346500e+02
    endloop
  endfacet
  facet normal 2.057644e-01 7.054028e-01 6.782830e-01
    outer loop
      vertex   -2.070139e+02 1.312500e+02 1.998236e+02
      vertex   -2.075327e+02 1.319430e+02 1.992603e+02
      vertex   -2.072676e+02 1.312500e+02 1.999005e+02
    endloop
  endfacet
  facet normal 2.057528e-01 7.053997e-01 6.782898e-01
    outer loop
      vertex   -2.070139e+02 1.312500e+02 1.998236e+02
      vertex   -2.071490e+02 1.319430e+02 1.991439e+02
      vertex   -2.075327e+02 1.319430e+02 1.992603e+02
    endloop
  endfacet
  facet normal 3.341430e-01 7.054094e-01 6.250968e-01
    outer loop
      vertex   -2.072676e+02 1.312500e+02 1.999005e+02
      vertex   -2.078864e+02 1.319430e+02 1.994493e+02
      vertex   -2.075014e+02 1.312500e+02 2.000255e+02
    endloop
  endfacet
  facet normal 3.341198e-01 7.054021e-01 6.251175e-01
    outer loop
      vertex   -2.072676e+02 1.312500e+02 1.999005e+02
      vertex   -2.075327e+02 1.319430e+02 1.992603e+02
      vertex   -2.078864e+02 1.319430e+02 1.994493e+02
    endloop
  endfacet
  facet normal 4.496586e-01 7.053992e-01 5.479226e-01
    outer loop
      vertex   -2.075014e+02 1.312500e+02 2.000255e+02
      vertex   -2.081963e+02 1.319430e+02 1.997037e+02
      vertex   -2.077063e+02 1.312500e+02 2.001937e+02
    endloop
  endfacet
  facet normal 4.496790e-01 7.054072e-01 5.478956e-01
    outer loop
      vertex   -2.075014e+02 1.312500e+02 2.000255e+02
      vertex   -2.078864e+02 1.319430e+02 1.994493e+02
      vertex   -2.081963e+02 1.319430e+02 1.997037e+02
    endloop
  endfacet
  facet normal 5.479152e-01 7.054088e-01 4.496525e-01
    outer loop
      vertex   -2.077063e+02 1.312500e+02 2.001937e+02
      vertex   -2.084507e+02 1.319430e+02 2.000136e+02
      vertex   -2.078745e+02 1.312500e+02 2.003986e+02
    endloop
  endfacet
  facet normal 5.479004e-01 7.054008e-01 4.496830e-01
    outer loop
      vertex   -2.077063e+02 1.312500e+02 2.001937e+02
      vertex   -2.081963e+02 1.319430e+02 1.997037e+02
      vertex   -2.084507e+02 1.319430e+02 2.000136e+02
    endloop
  endfacet
  facet normal 6.251046e-01 7.054006e-01 3.341472e-01
    outer loop
      vertex   -2.078745e+02 1.312500e+02 2.003986e+02
      vertex   -2.086397e+02 1.319430e+02 2.003673e+02
      vertex   -2.079995e+02 1.312500e+02 2.006325e+02
    endloop
  endfacet
  facet normal 6.251124e-01 7.054079e-01 3.341170e-01
    outer loop
      vertex   -2.078745e+02 1.312500e+02 2.003986e+02
      vertex   -2.084507e+02 1.319430e+02 2.000136e+02
      vertex   -2.086397e+02 1.319430e+02 2.003673e+02
    endloop
  endfacet
  facet normal 6.782866e-01 7.053991e-01 2.057655e-01
    outer loop
      vertex   -2.079995e+02 1.312500e+02 2.006325e+02
      vertex   -2.087561e+02 1.319430e+02 2.007510e+02
      vertex   -2.080765e+02 1.312500e+02 2.008862e+02
    endloop
  endfacet
  facet normal 6.782874e-01 7.054022e-01 2.057521e-01
    outer loop
      vertex   -2.079995e+02 1.312500e+02 2.006325e+02
      vertex   -2.086397e+02 1.319430e+02 2.003673e+02
      vertex   -2.087561e+02 1.319430e+02 2.007510e+02
    endloop
  endfacet
  facet normal 7.053953e-01 7.053998e-01 6.948761e-02
    outer loop
      vertex   -2.080765e+02 1.312500e+02 2.008862e+02
      vertex   -2.087561e+02 1.319430e+02 2.007510e+02
      vertex   -2.087954e+02 1.319430e+02 2.011500e+02
    endloop
  endfacet
  facet normal 7.053898e-01 7.054092e-01 6.944781e-02
    outer loop
      vertex   -2.080765e+02 1.312500e+02 2.008862e+02
      vertex   -2.087954e+02 1.319430e+02 2.011500e+02
      vertex   -2.081024e+02 1.312500e+02 2.011500e+02
    endloop
  endfacet
  facet normal 7.054011e-01 7.053979e-01 -6.944891e-02
    outer loop
      vertex   -2.081024e+02 1.312500e+02 2.346500e+02
      vertex   -2.087561e+02 1.319430e+02 2.350491e+02
      vertex   -2.080765e+02 1.312500e+02 2.349139e+02
    endloop
  endfacet
  facet normal 7.053879e-01 7.054073e-01 -6.948688e-02
    outer loop
      vertex   -2.081024e+02 1.312500e+02 2.346500e+02
      vertex   -2.087954e+02 1.319430e+02 2.346500e+02
      vertex   -2.087561e+02 1.319430e+02 2.350491e+02
    endloop
  endfacet
  facet normal 6.782830e-01 7.054028e-01 -2.057644e-01
    outer loop
      vertex   -2.080765e+02 1.312500e+02 2.349139e+02
      vertex   -2.086397e+02 1.319430e+02 2.354327e+02
      vertex   -2.079995e+02 1.312500e+02 2.351676e+02
    endloop
  endfacet
  facet normal 6.782898e-01 7.053997e-01 -2.057528e-01
    outer loop
      vertex   -2.080765e+02 1.312500e+02 2.349139e+02
      vertex   -2.087561e+02 1.319430e+02 2.350491e+02
      vertex   -2.086397e+02 1.319430e+02 2.354327e+02
    endloop
  endfacet
  facet normal 6.250968e-01 7.054094e-01 -3.341430e-01
    outer loop
      vertex   -2.079995e+02 1.312500e+02 2.351676e+02
      vertex   -2.084507e+02 1.319430e+02 2.357864e+02
      vertex   -2.078745e+02 1.312500e+02 2.354014e+02
    endloop
  endfacet
  facet normal 6.251175e-01 7.054021e-01 -3.341198e-01
    outer loop
      vertex   -2.079995e+02 1.312500e+02 2.351676e+02
      vertex   -2.086397e+02 1.319430e+02 2.354327e+02
      vertex   -2.084507e+02 1.319430e+02 2.357864e+02
    endloop
  endfacet
  facet normal 5.479226e-01 7.053992e-01 -4.496586e-01
    outer loop
      vertex   -2.078745e+02 1.312500e+02 2.354014e+02
      vertex   -2.081963e+02 1.319430e+02 2.360963e+02
      vertex   -2.077063e+02 1.312500e+02 2.356063e+02
    endloop
  endfacet
  facet normal 5.478956e-01 7.054072e-01 -4.496790e-01
    outer loop
      vertex   -2.078745e+02 1.312500e+02 2.354014e+02
      vertex   -2.084507e+02 1.319430e+02 2.357864e+02
      vertex   -2.081963e+02 1.319430e+02 2.360963e+02
    endloop
  endfacet
  facet normal 4.496525e-01 7.054088e-01 -5.479152e-01
    outer loop
      vertex   -2.077063e+02 1.312500e+02 2.356063e+02
      vertex   -2.078864e+02 1.319430e+02 2.363507e+02
      vertex   -2.075014e+02 1.312500e+02 2.357745e+02
    endloop
  endfacet
  facet normal 4.496830e-01 7.054008e-01 -5.479004e-01
    outer loop
      vertex   -2.077063e+02 1.312500e+02 2.356063e+02
      vertex   -2.081963e+02 1.319430e+02 2.360963e+02
      vertex   -2.078864e+02 1.319430e+02 2.363507e+02
    endloop
  endfacet
  facet normal 3.341472e-01 7.054006e-01 -6.251046e-01
    outer loop
      vertex   -2.075014e+02 1.312500e+02 2.357745e+02
      vertex   -2.075327e+02 1.319430e+02 2.365397e+02
      vertex   -2.072676e+02 1.312500e+02 2.358995e+02
    endloop
  endfacet
  facet normal 3.341170e-01 7.054079e-01 -6.251124e-01
    outer loop
      vertex   -2.075014e+02 1.312500e+02 2.357745e+02
      vertex   -2.078864e+02 1.319430e+02 2.363507e+02
      vertex   -2.075327e+02 1.319430e+02 2.365397e+02
    endloop
  endfacet
  facet normal 2.057655e-01 7.053991e-01 -6.782866e-01
    outer loop
      vertex   -2.072676e+02 1.312500e+02 2.358995e+02
      vertex   -2.071490e+02 1.319430e+02 2.366561e+02
      vertex   -2.070139e+02 1.312500e+02 2.359765e+02
    endloop
  endfacet
  facet normal 2.057521e-01 7.054022e-01 -6.782874e-01
    outer loop
      vertex   -2.072676e+02 1.312500e+02 2.358995e+02
      vertex   -2.075327e+02 1.319430e+02 2.365397e+02
      vertex   -2.071490e+02 1.319430e+02 2.366561e+02
    endloop
  endfacet
  facet normal 6.948761e-02 7.053998e-01 -7.053953e-01
    outer loop
      vertex   -2.067600e+02 1.319430e+02 2.366944e+02
      vertex   -2.067600e+02 1.319167e+02 2.366682e+02
      vertex   -2.071490e+02 1.319430e+02 2.366561e+02
    endloop
  endfacet
  facet normal 6.948761e-02 7.053998e-01 -7.053953e-01
    outer loop
      vertex   -2.071490e+02 1.319430e+02 2.366561e+02
      vertex   -2.067600e+02 1.319167e+02 2.366682e+02
      vertex   -2.070139e+02 1.312500e+02 2.359765e+02
    endloop
  endfacet
  facet normal 6.944781e-02 7.054092e-01 -7.053898e-01
    outer loop
      vertex   -2.067600e+02 1.319167e+02 2.366682e+02
      vertex   -2.067600e+02 1.312500e+02 2.360015e+02
      vertex   -2.070139e+02 1.312500e+02 2.359765e+02
    endloop
  endfacet
  facet normal 7.070970e-01 7.071165e-01 -0.000000e+00
    outer loop
      vertex   -2.087954e+02 1.319430e+02 2.011500e+02
      vertex   -2.087954e+02 1.319430e+02 2.346500e+02
      vertex   -2.081024e+02 1.312500e+02 2.346500e+02
    endloop
  endfacet
  facet normal 7.070970e-01 7.071165e-01 0.000000e+00
    outer loop
      vertex   -2.087954e+02 1.319430e+02 2.011500e+02
      vertex   -2.081024e+02 1.312500e+02 2.346500e+02
      vertex   -2.081024e+02 1.312500e+02 2.011500e+02
    endloop
  endfacet
  facet normal 2.902794e-01 0.000000e+00 9.569419e-01
    outer loop
      vertex   -2.071490e+02 1.319430e+02 1.991439e+02
      vertex   -2.075327e+02 1.337430e+02 1.992603e+02
      vertex   -2.075327e+02 1.319430e+02 1.992603e+02
    endloop
  endfacet
  facet normal 2.902794e-01 -0.000000e+00 9.569419e-01
    outer loop
      vertex   -2.071490e+02 1.319430e+02 1.991439e+02
      vertex   -2.071490e+02 1.337430e+02 1.991439e+02
      vertex   -2.075327e+02 1.337430e+02 1.992603e+02
    endloop
  endfacet
  facet normal 4.713830e-01 0.000000e+00 8.819286e-01
    outer loop
      vertex   -2.075327e+02 1.319430e+02 1.992603e+02
      vertex   -2.078864e+02 1.337430e+02 1.994493e+02
      vertex   -2.078864e+02 1.319430e+02 1.994493e+02
    endloop
  endfacet
  facet normal 4.713830e-01 -0.000000e+00 8.819286e-01
    outer loop
      vertex   -2.075327e+02 1.319430e+02 1.992603e+02
      vertex   -2.075327e+02 1.337430e+02 1.992603e+02
      vertex   -2.078864e+02 1.337430e+02 1.994493e+02
    endloop
  endfacet
  facet normal 6.344208e-01 0.000000e+00 7.729878e-01
    outer loop
      vertex   -2.078864e+02 1.319430e+02 1.994493e+02
      vertex   -2.081963e+02 1.337430e+02 1.997037e+02
      vertex   -2.081963e+02 1.319430e+02 1.997037e+02
    endloop
  endfacet
  facet normal 6.344208e-01 -0.000000e+00 7.729878e-01
    outer loop
      vertex   -2.078864e+02 1.319430e+02 1.994493e+02
      vertex   -2.078864e+02 1.337430e+02 1.994493e+02
      vertex   -2.081963e+02 1.337430e+02 1.997037e+02
    endloop
  endfacet
  facet normal 7.729878e-01 0.000000e+00 6.344208e-01
    outer loop
      vertex   -2.081963e+02 1.319430e+02 1.997037e+02
      vertex   -2.084507e+02 1.337430e+02 2.000136e+02
      vertex   -2.084507e+02 1.319430e+02 2.000136e+02
    endloop
  endfacet
  facet normal 7.729878e-01 -0.000000e+00 6.344208e-01
    outer loop
      vertex   -2.081963e+02 1.319430e+02 1.997037e+02
      vertex   -2.081963e+02 1.337430e+02 1.997037e+02
      vertex   -2.084507e+02 1.337430e+02 2.000136e+02
    endloop
  endfacet
  facet normal 8.819286e-01 0.000000e+00 4.713830e-01
    outer loop
      vertex   -2.084507e+02 1.319430e+02 2.000136e+02
      vertex   -2.086397e+02 1.337430e+02 2.003673e+02
      vertex   -2.086397e+02 1.319430e+02 2.003673e+02
    endloop
  endfacet
  facet normal 8.819286e-01 -0.000000e+00 4.713830e-01
    outer loop
      vertex   -2.084507e+02 1.319430e+02 2.000136e+02
      vertex   -2.084507e+02 1.337430e+02 2.000136e+02
      vertex   -2.086397e+02 1.337430e+02 2.003673e+02
    endloop
  endfacet
  facet normal 9.569419e-01 0.000000e+00 2.902794e-01
    outer loop
      vertex   -2.086397e+02 1.319430e+02 2.003673e+02
      vertex   -2.087561e+02 1.337430e+02 2.007510e+02
      vertex   -2.087561e+02 1.319430e+02 2.007510e+02
    endloop
  endfacet
  facet normal 9.569419e-01 -0.000000e+00 2.902794e-01
    outer loop
      vertex   -2.086397e+02 1.319430e+02 2.003673e+02
      vertex   -2.086397e+02 1.337430e+02 2.003673e+02
      vertex   -2.087561e+02 1.337430e+02 2.007510e+02
    endloop
  endfacet
  facet normal 9.951830e-01 -0.000000e+00 9.803423e-02
    outer loop
      vertex   -2.087561e+02 1.319430e+02 2.007510e+02
      vertex   -2.087561e+02 1.337430e+02 2.007510e+02
      vertex   -2.087954e+02 1.337430e+02 2.011500e+02
    endloop
  endfacet
  facet normal 9.951830e-01 0.000000e+00 9.803423e-02
    outer loop
      vertex   -2.087561e+02 1.319430e+02 2.007510e+02
      vertex   -2.087954e+02 1.337430e+02 2.011500e+02
      vertex   -2.087954e+02 1.319430e+02 2.011500e+02
    endloop
  endfacet
  facet normal 9.951830e-01 0.000000e+00 -9.803423e-02
    outer loop
      vertex   -2.087954e+02 1.319430e+02 2.346500e+02
      vertex   -2.087954e+02 1.337430e+02 2.346500e+02
      vertex   -2.087561e+02 1.319430e+02 2.350491e+02
    endloop
  endfacet
  facet normal 9.569419e-01 0.000000e+00 -2.902794e-01
    outer loop
      vertex   -2.087561e+02 1.319430e+02 2.350491e+02
      vertex   -2.086397e+02 1.337430e+02 2.354327e+02
      vertex   -2.086397e+02 1.319430e+02 2.354327e+02
    endloop
  endfacet
  facet normal 9.951830e-01 0.000000e+00 -9.803423e-02
    outer loop
      vertex   -2.087561e+02 1.319430e+02 2.350491e+02
      vertex   -2.087954e+02 1.337430e+02 2.346500e+02
      vertex   -2.087561e+02 1.337430e+02 2.350491e+02
    endloop
  endfacet
  facet normal 9.569419e-01 0.000000e+00 -2.902794e-01
    outer loop
      vertex   -2.087561e+02 1.319430e+02 2.350491e+02
      vertex   -2.087561e+02 1.337430e+02 2.350491e+02
      vertex   -2.086397e+02 1.337430e+02 2.354327e+02
    endloop
  endfacet
  facet normal 8.819286e-01 0.000000e+00 -4.713830e-01
    outer loop
      vertex   -2.086397e+02 1.319430e+02 2.354327e+02
      vertex   -2.084507e+02 1.337430e+02 2.357864e+02
      vertex   -2.084507e+02 1.319430e+02 2.357864e+02
    endloop
  endfacet
  facet normal 8.819286e-01 0.000000e+00 -4.713830e-01
    outer loop
      vertex   -2.086397e+02 1.319430e+02 2.354327e+02
      vertex   -2.086397e+02 1.337430e+02 2.354327e+02
      vertex   -2.084507e+02 1.337430e+02 2.357864e+02
    endloop
  endfacet
  facet normal 7.729878e-01 0.000000e+00 -6.344208e-01
    outer loop
      vertex   -2.084507e+02 1.319430e+02 2.357864e+02
      vertex   -2.081963e+02 1.337430e+02 2.360963e+02
      vertex   -2.081963e+02 1.319430e+02 2.360963e+02
    endloop
  endfacet
  facet normal 7.729878e-01 0.000000e+00 -6.344208e-01
    outer loop
      vertex   -2.084507e+02 1.319430e+02 2.357864e+02
      vertex   -2.084507e+02 1.337430e+02 2.357864e+02
      vertex   -2.081963e+02 1.337430e+02 2.360963e+02
    endloop
  endfacet
  facet normal 6.344208e-01 0.000000e+00 -7.729878e-01
    outer loop
      vertex   -2.081963e+02 1.319430e+02 2.360963e+02
      vertex   -2.078864e+02 1.337430e+02 2.363507e+02
      vertex   -2.078864e+02 1.319430e+02 2.363507e+02
    endloop
  endfacet
  facet normal 6.344208e-01 0.000000e+00 -7.729878e-01
    outer loop
      vertex   -2.081963e+02 1.319430e+02 2.360963e+02
      vertex   -2.081963e+02 1.337430e+02 2.360963e+02
      vertex   -2.078864e+02 1.337430e+02 2.363507e+02
    endloop
  endfacet
  facet normal 4.713830e-01 0.000000e+00 -8.819286e-01
    outer loop
      vertex   -2.078864e+02 1.319430e+02 2.363507e+02
      vertex   -2.075327e+02 1.337430e+02 2.365397e+02
      vertex   -2.075327e+02 1.319430e+02 2.365397e+02
    endloop
  endfacet
  facet normal 4.713830e-01 0.000000e+00 -8.819286e-01
    outer loop
      vertex   -2.078864e+02 1.319430e+02 2.363507e+02
      vertex   -2.078864e+02 1.337430e+02 2.363507e+02
      vertex   -2.075327e+02 1.337430e+02 2.365397e+02
    endloop
  endfacet
  facet normal 2.902794e-01 0.000000e+00 -9.569419e-01
    outer loop
      vertex   -2.075327e+02 1.319430e+02 2.365397e+02
      vertex   -2.071490e+02 1.337430e+02 2.366561e+02
      vertex   -2.071490e+02 1.319430e+02 2.366561e+02
    endloop
  endfacet
  facet normal 2.902794e-01 0.000000e+00 -9.569419e-01
    outer loop
      vertex   -2.075327e+02 1.319430e+02 2.365397e+02
      vertex   -2.075327e+02 1.337430e+02 2.365397e+02
      vertex   -2.071490e+02 1.337430e+02 2.366561e+02
    endloop
  endfacet
  facet normal 9.803423e-02 0.000000e+00 -9.951830e-01
    outer loop
      vertex   -2.067600e+02 1.337430e+02 2.366944e+02
      vertex   -2.067600e+02 1.336979e+02 2.366944e+02
      vertex   -2.071490e+02 1.337430e+02 2.366561e+02
    endloop
  endfacet
  facet normal 9.803423e-02 0.000000e+00 -9.951830e-01
    outer loop
      vertex   -2.071490e+02 1.337430e+02 2.366561e+02
      vertex   -2.067600e+02 1.336979e+02 2.366944e+02
      vertex   -2.071490e+02 1.319430e+02 2.366561e+02
    endloop
  endfacet
  facet normal 9.803423e-02 0.000000e+00 -9.951830e-01
    outer loop
      vertex   -2.067600e+02 1.336979e+02 2.366944e+02
      vertex   -2.067600e+02 1.319430e+02 2.366944e+02
      vertex   -2.071490e+02 1.319430e+02 2.366561e+02
    endloop
  endfacet
  facet normal 1.000000e+00 0.000000e+00 0.000000e+00
    outer loop
      vertex   -2.087954e+02 1.319430e+02 2.011500e+02
      vertex   -2.087954e+02 1.337430e+02 2.011500e+02
      vertex   -2.087954e+02 1.319430e+02 2.346500e+02
    endloop
  endfacet
  facet normal 1.000000e+00 0.000000e+00 -0.000000e+00
    outer loop
      vertex   -2.087954e+02 1.337430e+02 2.011500e+02
      vertex   -2.087954e+02 1.337430e+02 2.346500e+02
      vertex   -2.087954e+02 1.319430e+02 2.346500e+02
    endloop
  endfacet
  facet normal 2.057536e-01 7.053970e-01 6.782924e-01
    outer loop
      vertex   -2.071490e+02 1.337430e+02 1.991439e+02
      vertex   -2.079755e+02 1.349000e+02 1.981913e+02
      vertex   -2.075327e+02 1.337430e+02 1.992603e+02
    endloop
  endfacet
  facet normal 2.057478e-01 7.053955e-01 6.782957e-01
    outer loop
      vertex   -2.071490e+02 1.337430e+02 1.991439e+02
      vertex   -2.073748e+02 1.349000e+02 1.980091e+02
      vertex   -2.079755e+02 1.349000e+02 1.981913e+02
    endloop
  endfacet
  facet normal 3.341214e-01 7.053986e-01 6.251206e-01
    outer loop
      vertex   -2.075327e+02 1.337430e+02 1.992603e+02
      vertex   -2.079755e+02 1.349000e+02 1.981913e+02
      vertex   -2.078864e+02 1.337430e+02 1.994493e+02
    endloop
  endfacet
  facet normal 4.496813e-01 7.054034e-01 5.478984e-01
    outer loop
      vertex   -2.078864e+02 1.337430e+02 1.994493e+02
      vertex   -2.090145e+02 1.349000e+02 1.988855e+02
      vertex   -2.081963e+02 1.337430e+02 1.997037e+02
    endloop
  endfacet
  facet normal 3.341362e-01 7.053952e-01 6.251165e-01
    outer loop
      vertex   -2.078864e+02 1.337430e+02 1.994493e+02
      vertex   -2.079755e+02 1.349000e+02 1.981913e+02
      vertex   -2.085292e+02 1.349000e+02 1.984873e+02
    endloop
  endfacet
  facet normal 4.496598e-01 7.053958e-01 5.479259e-01
    outer loop
      vertex   -2.078864e+02 1.337430e+02 1.994493e+02
      vertex   -2.085292e+02 1.349000e+02 1.984873e+02
      vertex   -2.090145e+02 1.349000e+02 1.988855e+02
    endloop
  endfacet
  facet normal 5.479056e-01 7.053941e-01 4.496872e-01
    outer loop
      vertex   -2.081963e+02 1.337430e+02 1.997037e+02
      vertex   -2.094127e+02 1.349000e+02 1.993708e+02
      vertex   -2.084507e+02 1.337430e+02 2.000136e+02
    endloop
  endfacet
  facet normal 5.479214e-01 7.054018e-01 4.496560e-01
    outer loop
      vertex   -2.081963e+02 1.337430e+02 1.997037e+02
      vertex   -2.090145e+02 1.349000e+02 1.988855e+02
      vertex   -2.094127e+02 1.349000e+02 1.993708e+02
    endloop
  endfacet
  facet normal 6.251206e-01 7.053986e-01 3.341214e-01
    outer loop
      vertex   -2.084507e+02 1.337430e+02 2.000136e+02
      vertex   -2.097087e+02 1.349000e+02 1.999245e+02
      vertex   -2.086397e+02 1.337430e+02 2.003673e+02
    endloop
  endfacet
  facet normal 6.251165e-01 7.053952e-01 3.341362e-01
    outer loop
      vertex   -2.084507e+02 1.337430e+02 2.000136e+02
      vertex   -2.094127e+02 1.349000e+02 1.993708e+02
      vertex   -2.097087e+02 1.349000e+02 1.999245e+02
    endloop
  endfacet
  facet normal 6.782941e-01 7.053952e-01 2.057542e-01
    outer loop
      vertex   -2.086397e+02 1.337430e+02 2.003673e+02
      vertex   -2.098909e+02 1.349000e+02 2.005252e+02
      vertex   -2.087561e+02 1.337430e+02 2.007510e+02
    endloop
  endfacet
  facet normal 6.782946e-01 7.053966e-01 2.057474e-01
    outer loop
      vertex   -2.086397e+02 1.337430e+02 2.003673e+02
      vertex   -2.097087e+02 1.349000e+02 1.999245e+02
      vertex   -2.098909e+02 1.349000e+02 2.005252e+02
    endloop
  endfacet
  facet normal 7.054014e-01 7.053953e-01 6.947200e-02
    outer loop
      vertex   -2.087561e+02 1.337430e+02 2.007510e+02
      vertex   -2.098909e+02 1.349000e+02 2.005252e+02
      vertex   -2.099524e+02 1.349000e+02 2.011500e+02
    endloop
  endfacet
  facet normal 7.054033e-01 7.053917e-01 6.948840e-02
    outer loop
      vertex   -2.087561e+02 1.337430e+02 2.007510e+02
      vertex   -2.099524e+02 1.349000e+02 2.011500e+02
      vertex   -2.087954e+02 1.337430e+02 2.011500e+02
    endloop
  endfacet
  facet normal 7.054033e-01 7.053917e-01 -6.948840e-02
    outer loop
      vertex   -2.087954e+02 1.337430e+02 2.346500e+02
      vertex   -2.099524e+02 1.349000e+02 2.346500e+02
      vertex   -2.087561e+02 1.337430e+02 2.350491e+02
    endloop
  endfacet
  facet normal 6.782924e-01 7.053970e-01 -2.057536e-01
    outer loop
      vertex   -2.087561e+02 1.337430e+02 2.350491e+02
      vertex   -2.097087e+02 1.349000e+02 2.358755e+02
      vertex   -2.086397e+02 1.337430e+02 2.354327e+02
    endloop
  endfacet
  facet normal 7.054014e-01 7.053953e-01 -6.947200e-02
    outer loop
      vertex   -2.087561e+02 1.337430e+02 2.350491e+02
      vertex   -2.099524e+02 1.349000e+02 2.346500e+02
      vertex   -2.098909e+02 1.349000e+02 2.352748e+02
    endloop
  endfacet
  facet normal 6.782957e-01 7.053955e-01 -2.057478e-01
    outer loop
      vertex   -2.087561e+02 1.337430e+02 2.350491e+02
      vertex   -2.098909e+02 1.349000e+02 2.352748e+02
      vertex   -2.097087e+02 1.349000e+02 2.358755e+02
    endloop
  endfacet
  facet normal 6.251242e-01 7.053945e-01 -3.341233e-01
    outer loop
      vertex   -2.086397e+02 1.337430e+02 2.354327e+02
      vertex   -2.094127e+02 1.349000e+02 2.364292e+02
      vertex   -2.084507e+02 1.337430e+02 2.357864e+02
    endloop
  endfacet
  facet normal 6.251142e-01 7.053978e-01 -3.341350e-01
    outer loop
      vertex   -2.086397e+02 1.337430e+02 2.354327e+02
      vertex   -2.097087e+02 1.349000e+02 2.358755e+02
      vertex   -2.094127e+02 1.349000e+02 2.364292e+02
    endloop
  endfacet
  facet normal 5.478984e-01 7.054034e-01 -4.496813e-01
    outer loop
      vertex   -2.084507e+02 1.337430e+02 2.357864e+02
      vertex   -2.090145e+02 1.349000e+02 2.369145e+02
      vertex   -2.081963e+02 1.337430e+02 2.360963e+02
    endloop
  endfacet
  facet normal 5.479259e-01 7.053958e-01 -4.496598e-01
    outer loop
      vertex   -2.084507e+02 1.337430e+02 2.357864e+02
      vertex   -2.094127e+02 1.349000e+02 2.364292e+02
      vertex   -2.090145e+02 1.349000e+02 2.369145e+02
    endloop
  endfacet
  facet normal 4.496872e-01 7.053941e-01 -5.479056e-01
    outer loop
      vertex   -2.081963e+02 1.337430e+02 2.360963e+02
      vertex   -2.085292e+02 1.349000e+02 2.373127e+02
      vertex   -2.078864e+02 1.337430e+02 2.363507e+02
    endloop
  endfacet
  facet normal 4.496560e-01 7.054018e-01 -5.479214e-01
    outer loop
      vertex   -2.081963e+02 1.337430e+02 2.360963e+02
      vertex   -2.090145e+02 1.349000e+02 2.369145e+02
      vertex   -2.085292e+02 1.349000e+02 2.373127e+02
    endloop
  endfacet
  facet normal 3.341214e-01 7.053986e-01 -6.251206e-01
    outer loop
      vertex   -2.078864e+02 1.337430e+02 2.363507e+02
      vertex   -2.079755e+02 1.349000e+02 2.376087e+02
      vertex   -2.075327e+02 1.337430e+02 2.365397e+02
    endloop
  endfacet
  facet normal 3.341362e-01 7.053952e-01 -6.251165e-01
    outer loop
      vertex   -2.078864e+02 1.337430e+02 2.363507e+02
      vertex   -2.085292e+02 1.349000e+02 2.373127e+02
      vertex   -2.079755e+02 1.349000e+02 2.376087e+02
    endloop
  endfacet
  facet normal 2.057542e-01 7.053952e-01 -6.782941e-01
    outer loop
      vertex   -2.075327e+02 1.337430e+02 2.365397e+02
      vertex   -2.073748e+02 1.349000e+02 2.377909e+02
      vertex   -2.071490e+02 1.337430e+02 2.366561e+02
    endloop
  endfacet
  facet normal 2.057474e-01 7.053966e-01 -6.782946e-01
    outer loop
      vertex   -2.075327e+02 1.337430e+02 2.365397e+02
      vertex   -2.079755e+02 1.349000e+02 2.376087e+02
      vertex   -2.073748e+02 1.349000e+02 2.377909e+02
    endloop
  endfacet
  facet normal 6.947200e-02 7.053953e-01 -7.054014e-01
    outer loop
      vertex   -2.067600e+02 1.349000e+02 2.378515e+02
      vertex   -2.067600e+02 1.348710e+02 2.378225e+02
      vertex   -2.073748e+02 1.349000e+02 2.377909e+02
    endloop
  endfacet
  facet normal 6.947200e-02 7.053953e-01 -7.054014e-01
    outer loop
      vertex   -2.073748e+02 1.349000e+02 2.377909e+02
      vertex   -2.067600e+02 1.348710e+02 2.378225e+02
      vertex   -2.071490e+02 1.337430e+02 2.366561e+02
    endloop
  endfacet
  facet normal 6.948840e-02 7.053917e-01 -7.054033e-01
    outer loop
      vertex   -2.067600e+02 1.348710e+02 2.378225e+02
      vertex   -2.067600e+02 1.337430e+02 2.366944e+02
      vertex   -2.071490e+02 1.337430e+02 2.366561e+02
    endloop
  endfacet
  facet normal 7.071126e-01 7.071010e-01 -0.000000e+00
    outer loop
      vertex   -2.099524e+02 1.349000e+02 2.011500e+02
      vertex   -2.099524e+02 1.349000e+02 2.346500e+02
      vertex   -2.087954e+02 1.337430e+02 2.011500e+02
    endloop
  endfacet
  facet normal 7.071126e-01 7.071010e-01 -0.000000e+00
    outer loop
      vertex   -2.087954e+02 1.337430e+02 2.011500e+02
      vertex   -2.099524e+02 1.349000e+02 2.346500e+02
      vertex   -2.087954e+02 1.337430e+02 2.346500e+02
    endloop
  endfacet
  facet normal 0.000000e+00 1.000000e+00 0.000000e+00
    outer loop
      vertex   -2.067600e+02 1.349000e+02 1.979486e+02
      vertex   -2.067600e+02 1.349000e+02 1.971638e+02
      vertex   -2.073748e+02 1.349000e+02 1.980091e+02
    endloop
  endfacet
  facet normal 0.000000e+00 1.000000e+00 0.000000e+00
    outer loop
      vertex   -2.075304e+02 1.349000e+02 1.972269e+02
      vertex   -2.082807e+02 1.349000e+02 1.974545e+02
      vertex   -2.079755e+02 1.349000e+02 1.981913e+02
    endloop
  endfacet
  facet normal 0.000000e+00 1.000000e+00 -0.000000e+00
    outer loop
      vertex   -2.075304e+02 1.349000e+02 1.972269e+02
      vertex   -2.079755e+02 1.349000e+02 1.981913e+02
      vertex   -2.073748e+02 1.349000e+02 1.980091e+02
    endloop
  endfacet
  facet normal 0.000000e+00 1.000000e+00 0.000000e+00
    outer loop
      vertex   -2.082807e+02 1.349000e+02 1.974545e+02
      vertex   -2.089723e+02 1.349000e+02 1.978241e+02
      vertex   -2.085292e+02 1.349000e+02 1.984873e+02
    endloop
  endfacet
  facet normal 0.000000e+00 1.000000e+00 -0.000000e+00
    outer loop
      vertex   -2.082807e+02 1.349000e+02 1.974545e+02
      vertex   -2.085292e+02 1.349000e+02 1.984873e+02
      vertex   -2.079755e+02 1.349000e+02 1.981913e+02
    endloop
  endfacet
  facet normal 0.000000e+00 1.000000e+00 -0.000000e+00
    outer loop
      vertex   -2.089723e+02 1.349000e+02 1.978241e+02
      vertex   -2.095784e+02 1.349000e+02 1.983216e+02
      vertex   -2.085292e+02 1.349000e+02 1.984873e+02
    endloop
  endfacet
  facet normal 0.000000e+00 1.000000e+00 0.000000e+00
    outer loop
      vertex   -2.085292e+02 1.349000e+02 1.984873e+02
      vertex   -2.095784e+02 1.349000e+02 1.983216e+02
      vertex   -2.090145e+02 1.349000e+02 1.988855e+02
    endloop
  endfacet
  facet normal 0.000000e+00 1.000000e+00 0.000000e+00
    outer loop
      vertex   -2.090145e+02 1.349000e+02 1.988855e+02
      vertex   -2.095784e+02 1.349000e+02 1.983216e+02
      vertex   -2.100759e+02 1.349000e+02 1.989277e+02
    endloop
  endfacet
  facet normal 0.000000e+00 1.000000e+00 0.000000e+00
    outer loop
      vertex   -2.090145e+02 1.349000e+02 1.988855e+02
      vertex   -2.100759e+02 1.349000e+02 1.989277e+02
      vertex   -2.094127e+02 1.349000e+02 1.993708e+02
    endloop
  endfacet
  facet normal 0.000000e+00 1.000000e+00 0.000000e+00
    outer loop
      vertex   -2.094127e+02 1.349000e+02 1.993708e+02
      vertex   -2.104455e+02 1.349000e+02 1.996193e+02
      vertex   -2.097087e+02 1.349000e+02 1.999245e+02
    endloop
  endfacet
  facet normal 0.000000e+00 1.000000e+00 0.000000e+00
    outer loop
      vertex   -2.094127e+02 1.349000e+02 1.993708e+02
      vertex   -2.100759e+02 1.349000e+02 1.989277e+02
      vertex   -2.104455e+02 1.349000e+02 1.996193e+02
    endloop
  endfacet
  facet normal 0.000000e+00 1.000000e+00 0.000000e+00
    outer loop
      vertex   -2.097087e+02 1.349000e+02 1.999245e+02
      vertex   -2.104455e+02 1.349000e+02 1.996193e+02
      vertex   -2.106731e+02 1.349000e+02 2.003696e+02
    endloop
  endfacet
  facet normal 0.000000e+00 1.000000e+00 0.000000e+00
    outer loop
      vertex   -2.097087e+02 1.349000e+02 1.999245e+02
      vertex   -2.106731e+02 1.349000e+02 2.003696e+02
      vertex   -2.098909e+02 1.349000e+02 2.005252e+02
    endloop
  endfacet
  facet normal 0.000000e+00 1.000000e+00 0.000000e+00
    outer loop
      vertex   -2.098909e+02 1.349000e+02 2.005252e+02
      vertex   -2.106731e+02 1.349000e+02 2.003696e+02
      vertex   -2.107500e+02 1.349000e+02 2.011500e+02
    endloop
  endfacet
  facet normal 0.000000e+00 1.000000e+00 0.000000e+00
    outer loop
      vertex   -2.098909e+02 1.349000e+02 2.005252e+02
      vertex   -2.107500e+02 1.349000e+02 2.011500e+02
      vertex   -2.099524e+02 1.349000e+02 2.011500e+02
    endloop
  endfacet
  facet normal 0.000000e+00 1.000000e+00 -0.000000e+00
    outer loop
      vertex   -2.099524e+02 1.349000e+02 2.011500e+02
      vertex   -2.107500e+02 1.349000e+02 2.011500e+02
      vertex   -2.099524e+02 1.349000e+02 2.346500e+02
    endloop
  endfacet
  facet normal 0.000000e+00 1.000000e+00 0.000000e+00
    outer loop
      vertex   -2.107500e+02 1.349000e+02 2.011500e+02
      vertex   -2.107500e+02 1.349000e+02 2.346500e+02
      vertex   -2.099524e+02 1.349000e+02 2.346500e+02
    endloop
  endfacet
  facet normal 0.000000e+00 1.000000e+00 -0.000000e+00
    outer loop
      vertex   -2.099524e+02 1.349000e+02 2.346500e+02
      vertex   -2.106731e+02 1.349000e+02 2.354304e+02
      vertex   -2.098909e+02 1.349000e+02 2.352748e+02
    endloop
  endfacet
  facet normal 0.000000e+00 1.000000e+00 0.000000e+00
    outer loop
      vertex   -2.099524e+02 1.349000e+02 2.346500e+02
      vertex   -2.107500e+02 1.349000e+02 2.346500e+02
      vertex   -2.106731e+02 1.349000e+02 2.354304e+02
    endloop
  endfacet
  facet normal 0.000000e+00 1.000000e+00 -0.000000e+00
    outer loop
      vertex   -2.067600e+02 1.349000e+02 2.378515e+02
      vertex   -2.073748e+02 1.349000e+02 2.377909e+02
      vertex   -2.067600e+02 1.349000e+02 2.378617e+02
    endloop
  endfacet
  facet normal 0.000000e+00 1.000000e+00 0.000000e+00
    outer loop
      vertex   -2.067600e+02 1.349000e+02 2.378617e+02
      vertex   -2.073748e+02 1.349000e+02 2.377909e+02
      vertex   -2.075304e+02 1.349000e+02 2.385732e+02
    endloop
  endfacet
  facet normal 0.000000e+00 1.000000e+00 0.000000e+00
    outer loop
      vertex   -2.067600e+02 1.349000e+02 2.386490e+02
      vertex   -2.067600e+02 1.349000e+02 2.378617e+02
      vertex   -2.075304e+02 1.349000e+02 2.385732e+02
    endloop
  endfacet
  facet normal 0.000000e+00 1.000000e+00 0.000000e+00
    outer loop
      vertex   -2.073748e+02 1.349000e+02 2.377909e+02
      vertex   -2.079755e+02 1.349000e+02 2.376087e+02
      vertex   -2.082807e+02 1.349000e+02 2.383455e+02
    endloop
  endfacet
  facet normal 0.000000e+00 1.000000e+00 0.000000e+00
    outer loop
      vertex   -2.073748e+02 1.349000e+02 2.377909e+02
      vertex   -2.082807e+02 1.349000e+02 2.383455e+02
      vertex   -2.075304e+02 1.349000e+02 2.385732e+02
    endloop
  endfacet
  facet normal 0.000000e+00 1.000000e+00 -0.000000e+00
    outer loop
      vertex   -2.098909e+02 1.349000e+02 2.352748e+02
      vertex   -2.106731e+02 1.349000e+02 2.354304e+02
      vertex   -2.097087e+02 1.349000e+02 2.358755e+02
    endloop
  endfacet
  facet normal 0.000000e+00 1.000000e+00 -0.000000e+00
    outer loop
      vertex   -2.097087e+02 1.349000e+02 2.358755e+02
      vertex   -2.104455e+02 1.349000e+02 2.361807e+02
      vertex   -2.094127e+02 1.349000e+02 2.364292e+02
    endloop
  endfacet
  facet normal 0.000000e+00 1.000000e+00 0.000000e+00
    outer loop
      vertex   -2.097087e+02 1.349000e+02 2.358755e+02
      vertex   -2.106731e+02 1.349000e+02 2.354304e+02
      vertex   -2.104455e+02 1.349000e+02 2.361807e+02
    endloop
  endfacet
  facet normal 0.000000e+00 1.000000e+00 0.000000e+00
    outer loop
      vertex   -2.079755e+02 1.349000e+02 2.376087e+02
      vertex   -2.085292e+02 1.349000e+02 2.373127e+02
      vertex   -2.089723e+02 1.349000e+02 2.379759e+02
    endloop
  endfacet
  facet normal 0.000000e+00 1.000000e+00 0.000000e+00
    outer loop
      vertex   -2.079755e+02 1.349000e+02 2.376087e+02
      vertex   -2.089723e+02 1.349000e+02 2.379759e+02
      vertex   -2.082807e+02 1.349000e+02 2.383455e+02
    endloop
  endfacet
  facet normal 0.000000e+00 1.000000e+00 -0.000000e+00
    outer loop
      vertex   -2.094127e+02 1.349000e+02 2.364292e+02
      vertex   -2.100759e+02 1.349000e+02 2.368723e+02
      vertex   -2.090145e+02 1.349000e+02 2.369145e+02
    endloop
  endfacet
  facet normal 0.000000e+00 1.000000e+00 0.000000e+00
    outer loop
      vertex   -2.094127e+02 1.349000e+02 2.364292e+02
      vertex   -2.104455e+02 1.349000e+02 2.361807e+02
      vertex   -2.100759e+02 1.349000e+02 2.368723e+02
    endloop
  endfacet
  facet normal 0.000000e+00 1.000000e+00 0.000000e+00
    outer loop
      vertex   -2.085292e+02 1.349000e+02 2.373127e+02
      vertex   -2.090145e+02 1.349000e+02 2.369145e+02
      vertex   -2.095784e+02 1.349000e+02 2.374784e+02
    endloop
  endfacet
  facet normal 0.000000e+00 1.000000e+00 0.000000e+00
    outer loop
      vertex   -2.085292e+02 1.349000e+02 2.373127e+02
      vertex   -2.095784e+02 1.349000e+02 2.374784e+02
      vertex   -2.089723e+02 1.349000e+02 2.379759e+02
    endloop
  endfacet
  facet normal 0.000000e+00 1.000000e+00 0.000000e+00
    outer loop
      vertex   -2.090145e+02 1.349000e+02 2.369145e+02
      vertex   -2.100759e+02 1.349000e+02 2.368723e+02
      vertex   -2.095784e+02 1.349000e+02 2.374784e+02
    endloop
  endfacet
endsolid
